/* XPM */
static char *_91054a7bebe4a30fad1b00837cf7cedgtpshzbQB21BTNiu[] = {
/* columns rows colors chars-per-pixel */
"60 60 248 2 ",
"   c None",
".  c #3C0303",
"X  c #360606",
"o  c #440203",
"O  c #4C0204",
"+  c #4A050A",
"@  c #540203",
"#  c #5B0204",
"$  c #57040A",
"%  c #521215",
"&  c #620304",
"*  c #6D020B",
"=  c #6C0C0B",
"-  c #670807",
";  c #74020C",
":  c #7C030D",
">  c #760A09",
",  c #7C140B",
"<  c #7D1A0D",
"1  c #76140B",
"2  c #7B0212",
"3  c #7E1912",
"4  c #6A110F",
"5  c #781C24",
"6  c #5A3232",
"7  c #57272B",
"8  c #792624",
"9  c #63383A",
"0  c #762F2E",
"q  c #61231D",
"w  c #78504F",
"e  c #86080D",
"r  c #85180B",
"t  c #850212",
"y  c #8C0214",
"u  c #8A0619",
"i  c #930415",
"p  c #9C0C15",
"a  c #95021A",
"s  c #9C011A",
"d  c #9E0B1A",
"f  c #980615",
"g  c #891914",
"h  c #981A18",
"j  c #95110D",
"k  c #A4031C",
"l  c #AB021B",
"z  c #AC0C1C",
"x  c #A60A17",
"c  c #B4051D",
"v  c #B30A1D",
"b  c #B9061D",
"n  c #AC1216",
"m  c #AB141A",
"M  c #AC1A1A",
"N  c #A41618",
"B  c #B1141C",
"V  c #B31C1B",
"C  c #B51A19",
"Z  c #87230E",
"A  c #93250E",
"S  c #8B2513",
"D  c #982916",
"F  c #9C3218",
"G  c #A72719",
"H  c #B42D1D",
"J  c #B8261A",
"K  c #A93719",
"L  c #BB351D",
"P  c #BD3A1B",
"I  c #B6371B",
"U  c #AF2D0F",
"Y  c #960221",
"T  c #841C2A",
"R  c #AC0622",
"E  c #B50323",
"W  c #BB0224",
"Q  c #B40C23",
"!  c #BC0B24",
"~  c #B9072B",
"^  c #AB1721",
"/  c #B91827",
"(  c #BB1C34",
")  c #88372C",
"_  c #8D2C30",
"`  c #A82923",
"'  c #B52C23",
"]  c #B92723",
"[  c #AA3922",
"{  c #BC3424",
"}  c #BA3726",
"|  c #B7393A",
" . c #B12B36",
".. c #C1171D",
"X. c #C23D1D",
"o. c #C5351C",
"O. c #C5251D",
"+. c #CA0226",
"@. c #CC022B",
"#. c #C30427",
"$. c #D3022B",
"%. c #D60328",
"&. c #C71924",
"*. c #D71A2A",
"=. c #D40532",
"-. c #C51235",
";. c #E21B2C",
":. c #CB2224",
">. c #C52724",
",. c #D7252C",
"<. c #C43C24",
"1. c #CB3B26",
"2. c #CC342A",
"3. c #C33A2A",
"4. c #CD3D2A",
"5. c #C53325",
"6. c #D33C2C",
"7. c #D73A2A",
"8. c #DC2531",
"9. c #C93833",
"0. c #D83A32",
"q. c #CF2730",
"w. c #E32534",
"e. c #E23B35",
"r. c #E03A2C",
"t. c #B7451C",
"y. c #AE421D",
"u. c #984638",
"i. c #BD4323",
"p. c #B84826",
"a. c #BD4536",
"s. c #B24A2D",
"d. c #C5491D",
"f. c #CE541C",
"g. c #C44324",
"h. c #CB4323",
"j. c #C44B25",
"k. c #CB4A28",
"l. c #D3422B",
"z. c #DB442C",
"x. c #D44728",
"c. c #CC522A",
"v. c #C95628",
"b. c #D1532C",
"n. c #D55A2B",
"m. c #D95A2B",
"M. c #C94935",
"N. c #DA4431",
"B. c #D74933",
"V. c #C95538",
"C. c #DC5C32",
"Z. c #D45732",
"A. c #E2452D",
"S. c #E24437",
"D. c #E25A36",
"F. c #E25D2B",
"G. c #CE6326",
"H. c #D8672B",
"J. c #D46333",
"K. c #DB6533",
"L. c #DA6938",
"P. c #DB7239",
"I. c #D36D30",
"U. c #E4662E",
"Y. c #E86A2B",
"T. c #E6712E",
"R. c #E46433",
"E. c #E26C35",
"W. c #E76B38",
"Q. c #E77737",
"!. c #8A3B45",
"~. c #B73A48",
"^. c #B32C44",
"/. c #CC334F",
"(. c #884749",
"). c #984948",
"_. c #934E57",
"`. c #86595B",
"'. c #8E5150",
"]. c #B65557",
"[. c #AD4C53",
"{. c #AC685B",
"}. c #915B63",
"|. c #996967",
" X c #9B787A",
".X c #8C686B",
"XX c #A86869",
"oX c #A87A78",
"OX c #B36F6E",
"+X c #B05265",
"@X c #D55844",
"#X c #C74659",
"$X c #C95150",
"%X c #E55449",
"&X c #E24F48",
"*X c #D86747",
"=X c #D86C56",
"-X c #D16D51",
";X c #E37647",
":X c #E46F52",
">X c #D35871",
",X c #C97668",
"<X c #C87676",
"1X c #D47372",
"2X c #E77D73",
"3X c #E17063",
"4X c #EC853B",
"5X c #E88638",
"6X c #EC923D",
"7X c #F18C3E",
"8X c #B7877B",
"9X c #EA8A42",
"0X c #F29341",
"qX c #EA8A4E",
"wX c #D88768",
"eX c #D48B78",
"rX c #DB9778",
"tX c #E18563",
"yX c #E88A79",
"uX c #EC996D",
"iX c #ECA97B",
"pX c #DD805C",
"aX c #B77C83",
"sX c #DA7388",
"dX c #B28E8D",
"fX c #D98A86",
"gX c #D48997",
"hX c #D19290",
"jX c #E49490",
"kX c #CFA496",
"lX c #EDAC95",
"zX c #DCA8AA",
"xX c #E4B6A9",
"cX c #E6BAB4",
"vX c #EAAEAF",
"bX c #E09CA3",
"nX c #EAC2B7",
"mX c #EAC7B4",
"MX c #ECD3CB",
"NX c #F1D5C5",
"BX c #EAD8D6",
"VX c #F2D9D4",
"CX c #F0CAC9",
"ZX c #EFE6DB",
"AX c #F3E6DB",
"SX c #F3E7E5",
"DX c #EDE3EB",
"FX c #EEDEE1",
/* pixels */
"                                                                                                                        ",
"                                                                                                                        ",
"                                                                                                                        ",
"                                              dXoX`.!._.}.(.'. XdX                                                      ",
"                                      dX|.(._ T _ ^.[.[.+X+X).).) ) '.|.                                                ",
"                                  XX(.5 _ ~.#X>XsXsXsXgXbXzXnXNXNXcXhX[.8 ) |.                                          ",
"                              aX!.T  ./././.#X#X$X$X-X,XeXjXlXxXnXCXBXMXxXOX_ ).oX                                      ",
"                            _.S | ` ^  .~.[.$X$X=X=XpXtXtXwXwXwXeXjXvXcXMXVXCX<X8 _.                                    ",
"                          0 s.J.H.F.m.L.;X;X;X*X*XV.V.M.V.@X*X=X3X2XyXjXvXCXBXZXcX].) oX                                ",
"                      oX8 a.k.f.c.c.c.V.p.i.i.g.M.B.&X&X&X&X%X%X=X3X2XyXfXhXxXCXZXVX<XT aX                              ",
"                    aX8 F { 5.2.2.7.6.l.N.S.S.S.S.S.S.S.S.%X%X@X@XV.$X*X=XyXlXvXnXBXFXgX8 |.                            ",
"                  oXS } 3.5.{ 2.7.7.7.r.e.e.e.e.0.6.2.5.{ { <.<.l.B.C.*XpX1X,X1XfXzXBXSXxXu.oX                          ",
"                  ) { 1.1.6.l.<.o.5.1.6.6.2.o.o.o.1.l.z.z.z.D.D.B.l.3.]  .| ~.].,XjXnXBXAXnX_ hX                        ",
"                ) h H 3.4.7.7.z.l.4.1.1.1.6.0.A.N.l.4.5.{ ' J V n n c c Q  .a.-XtXuXlXnXVXSXgXT                         ",
"              }.u s p N ] >.2.6.6.l.N.0.7.2.5.' ^ B Q R E E E W W W c n ' V.;X9XqXuXiXlXcXVXSXOX_.                      ",
"            dX5 i a s k k x N N M M M B m n v c b b W #.E c z m M ] 3.b.K.E.Q.;XtXwXwX,XfXzXBXMX!.oX                    ",
"            (.D A h p f k R c b E E E E W W W W v n M G H } k.b.m.E.E.U.Y.R.V.a.} | ~.#X>XsXvXSXbX0                     ",
"            D I p.j.j.I G N x c c E E E E Q M ' g.n.R.W.Q.Q.Y.U.U.U.C.k.J B Q ~ / ( ^./.#X>XbXCXDX_.XX                  ",
"          (.K j.v.J.L.I.I.V.p.K G G J H X.b.K.Q.5X5X9X9XQ.E.R.Z.<.J v v c W W W ! / -././.>X1XhXSXcX'.                  ",
"          8 G U t.d.f.H.Q.5X5X5X9X9X9X0X6X6X6X0X0XQ.W.D.b.L C n E E W W W W W W W #.=./././.$X<XMXAXXXoX                ",
"        8X8 F K y.p.n.H.P.Q.5X5X5X6X6X9X9X9XQ.L.c.} J m v E W #.@.@.+.+.@.@.@.@.=.=.@.W Q ( $X2XxXSXkX{.                ",
"        (.= r D ` [ [ p.p.p.p.p.g.X.P L J V M n v b +.@.$.$.@.$.%.%.%.%.%.%.$.$.@.W b v J 0.@X3XeXAXMX{.                ",
"        q * ; : t e j f f x k l R E l c E W W W W ! ! v m M M N m m Q Q ! b b v z V ' 4.z.A.4.V.yXMXZXXX                ",
"        % * ; t t y a s s k l E E E E E E E z m V >.1.l.N.N.z.z.l.l.4.1.<.<.2.4.6.z.A.A.N.X.k.;XwXzXZXhX|.              ",
"        + - ; : e y i f s k k l x x x m V ] 2.0.N.N.z.x.1.<.h.g.g.g.4.z.z.A.A.A.A.A.z.h.<.Z.C.b.-XfXSXbX|.              ",
"      oX@ 4 3 g g h h h h h N G ] >.2.4.N.N.N.N.l.X.X.g.n.K.E.E.P.K.b.j.X.d.x.z.z.X.X.c.L.k.P B.:X1XVXxX|.              ",
"      `.@ 4 1 r S D G ` ' } } { } } <.<.X.X.X.d.d.H.Q.4X4X4X4X7X7X4XQ.E.U.b.x.k.j.J.Q.W.c.P M.@X@X-XmXnXOX              ",
"      (.@ 4 3 Z S A F F K K K y.i.p.c.b.C.K.E.Q.Q.Q.Q.T.E.P.H.T.Q.7X0X0X9X5X5X9X9X9XW.R.m.d.g.@X=X3XcXzXXX              ",
"      w O 4 < Z D F K I i.p.j.c.n.n.m.C.C.n.b.k.<.} I } } } g.k.Z.K.E.Q.4X7X5X5XT.Y.Y.R.W.K.K.V.a.| gXgXXX              ",
"      '.o $ 1 r A F K I t.t.j.c.v.j.P U M N N z v c E E E W b v m M H <.b.n.K.K.K.C.C.B.<.] / ( -.^.sXfXOX              ",
"      |.. + = < S D F [ [ [ [ G N p d d x n G ' ] ] V n b b #.+.+.#.W E v v B B B B v v v ! -./ ( | fXeXOX              ",
"      oXX . @ & - > , r r e i f l l k ^ } 9.7.:.O.:.7.0.>.B z v E #.+.$.$.@.+.+.@.@.@.@.@.@.! / 9.a.rXrX8X              ",
"        X . @ # & * ; : t y a s a p H 1.>.B R k k k R Q J 9.9./ n z b W #.@.=.$.$.+.#.Q z / } M.p.*XiXeX8X              ",
"        % X O @ # * ; : t y y i h ' 3.J x k a a i i i s l c ..:.2.5.] ^ ^ ^ B B C C J { 3.M.i.c.*X;XuX,XdX              ",
"        6 X O @ # * ; ; : e e h H 5./ k s a Y Y Y Y R R E ! &...2.N.A.z.l.l.l.l.l.l.4.<.X.g.C.W.*XL.=X].                ",
"        `.X o O @ $ - * ; r h G ' M k k s a s k l v / q.0.0.z.4.<.X.X.<.i.i.g.g.k.k.c.n.R.R.K.b.5.5.&XOX                ",
"        dXX . O @ # - = 3 g D G ` h x x x n C >.2.7.z.l.i.I P j.Z.C.D.R.R.R.R.R.R.R.K.K.C.h.J :.*.w.#XaX                ",
"          7 X $ & = , r , r r Z A D ` { 5.3.9.9.3.L I P h.C.R.F.F.R.R.R.R.R.R.R.U.R.C.1.J :.w.8.*.w.#X                  ",
"          }.X @ & * e j G H { { I K G D D F U U t.j.Z.K.R.K.C.C.n.k.<.L X.g.k.b.b.4.O.:.8.w.;.;.;.e.<X                  ",
"            % . # & & = , r D I d.j.v.v.v.v.v.G.L.E.K.n.n.Z.<.J J :.*.8.w.w.8.,.q.,.w.w.;.;.*.*.,.| kX                  ",
"            w X O # & & > , r Z D K i.j.c.n.n.n.c.c.b.k.H C :.*.*.*.*.*.:.:.>.>.:.:.&.&.:.*.:.J M.8X                    ",
"              6 o # # & * > , r A D F K K y.p.p.i.I G G ..&.*.*.*.&...J g.v.J.J.K.J.Z.Z.c.c.J.P.-X                      ",
"               XX O @ @ # $ - 1 < S S D D F D D h M V / *.&.&.&.C H c.L.P.T.T.Y.Y.T.T.T.T.T.T.L.kX                      ",
"                w . @ @ @ @ # = : e e j p N B / &.&.&.&.! / C U j.J.I.I.I.H.H.E.L.L.L.P.P.P.P.{.                        ",
"                  9 o @ # # & * : e e p p d z z z m m m h G [ v.G.G.G.H.J.v.P K I I P P P } ).                          ",
"                    6 . @ @ @ @ # & - > > , r r g A A F [ p.v.v.v.G.v.p.I L 3.4.6.7.7.l.M.s.                            ",
"                      6 + # & & & - > , r S S F F [ y.t.t.t.p.v.v.p.K K } } { ' ] ' ] } u.                              ",
"                        9 + # & # & - > 1 3 Z A F F K K y.p.p.K A G ` G h p f d d p g !.                                ",
"                          `.+ @ # # # - = 1 < Z S D F F F S Z D D h i i i s k k s Y _.                                  ",
"                            .X7 O @ @ # # & - 4 1 1 1 1 3 g g e e y i f s s a u T oX                                    ",
"                                |.% + @ @ @ @ $ - - = = = ; : : t t t y y 2 5 XX                                        ",
"                                    `.7 . o o O O @ # * * * ; 2 2 2 2 4 0 |.                                            ",
"                                          `.9 % + + + $ $ $ $ $ % 0 }.                                                  ",
"                                                  dX X.X.X X X                                                          ",
"                                                                                                                        ",
"                                                                                                                        ",
"                                                                                                                        ",
"                                                                                                                        ",
"                                                                                                                        ",
"                                                                                                                        "
};
