/* XPM */
static char *_d67bfe449dd4c879aab8cf9f77d4869a2xiByuz4fHYh3Ub[] = {
/* columns rows colors chars-per-pixel */
"68 60 248 2 ",
"   c None",
".  c #3C0303",
"X  c #360606",
"o  c #440203",
"O  c #4C0204",
"+  c #4A050A",
"@  c #540203",
"#  c #5B0204",
"$  c #57040A",
"%  c #521215",
"&  c #620304",
"*  c #6D020B",
"=  c #6C0C0B",
"-  c #670807",
";  c #74020C",
":  c #7C030D",
">  c #760A09",
",  c #7C140B",
"<  c #7D1A0D",
"1  c #76140B",
"2  c #7B0212",
"3  c #7E1912",
"4  c #6A110F",
"5  c #781C24",
"6  c #5A3232",
"7  c #57272B",
"8  c #792624",
"9  c #63383A",
"0  c #762F2E",
"q  c #61231D",
"w  c #78504F",
"e  c #86080D",
"r  c #85180B",
"t  c #850212",
"y  c #8C0214",
"u  c #8A0619",
"i  c #930415",
"p  c #9C0C15",
"a  c #95021A",
"s  c #9C011A",
"d  c #9E0B1A",
"f  c #980615",
"g  c #891914",
"h  c #981A18",
"j  c #95110D",
"k  c #A4031C",
"l  c #AB021B",
"z  c #AC0C1C",
"x  c #A60A17",
"c  c #B4051D",
"v  c #B30A1D",
"b  c #B9061D",
"n  c #AC1216",
"m  c #AB141A",
"M  c #AC1A1A",
"N  c #A41618",
"B  c #B1141C",
"V  c #B31C1B",
"C  c #B51A19",
"Z  c #87230E",
"A  c #93250E",
"S  c #8B2513",
"D  c #982916",
"F  c #9C3218",
"G  c #A72719",
"H  c #B42D1D",
"J  c #B8261A",
"K  c #A93719",
"L  c #BB351D",
"P  c #BD3A1B",
"I  c #B6371B",
"U  c #AF2D0F",
"Y  c #960221",
"T  c #841C2A",
"R  c #AC0622",
"E  c #B50323",
"W  c #BB0224",
"Q  c #B40C23",
"!  c #BC0B24",
"~  c #B9072B",
"^  c #AB1721",
"/  c #B91827",
"(  c #BB1C34",
")  c #88372C",
"_  c #8D2C30",
"`  c #A82923",
"'  c #B52C23",
"]  c #B92723",
"[  c #AA3922",
"{  c #BC3424",
"}  c #BA3726",
"|  c #B7393A",
" . c #B12B36",
".. c #C1171D",
"X. c #C23D1D",
"o. c #C5351C",
"O. c #C5251D",
"+. c #CA0226",
"@. c #CC022B",
"#. c #C30427",
"$. c #D3022B",
"%. c #D60328",
"&. c #C71924",
"*. c #D71A2A",
"=. c #D40532",
"-. c #C51235",
";. c #E21B2C",
":. c #CB2224",
">. c #C52724",
",. c #D7252C",
"<. c #C43C24",
"1. c #CB3B26",
"2. c #CC342A",
"3. c #C33A2A",
"4. c #CD3D2A",
"5. c #C53325",
"6. c #D33C2C",
"7. c #D73A2A",
"8. c #DC2531",
"9. c #C93833",
"0. c #D83A32",
"q. c #CF2730",
"w. c #E32534",
"e. c #E23B35",
"r. c #E03A2C",
"t. c #B7451C",
"y. c #AE421D",
"u. c #984638",
"i. c #BD4323",
"p. c #B84826",
"a. c #BD4536",
"s. c #B24A2D",
"d. c #C5491D",
"f. c #CE541C",
"g. c #C44324",
"h. c #CB4323",
"j. c #C44B25",
"k. c #CB4A28",
"l. c #D3422B",
"z. c #DB442C",
"x. c #D44728",
"c. c #CC522A",
"v. c #C95628",
"b. c #D1532C",
"n. c #D55A2B",
"m. c #D95A2B",
"M. c #C94935",
"N. c #DA4431",
"B. c #D74933",
"V. c #C95538",
"C. c #DC5C32",
"Z. c #D45732",
"A. c #E2452D",
"S. c #E24437",
"D. c #E25A36",
"F. c #E25D2B",
"G. c #CE6326",
"H. c #D8672B",
"J. c #D46333",
"K. c #DB6533",
"L. c #DA6938",
"P. c #DB7239",
"I. c #D36D30",
"U. c #E4662E",
"Y. c #E86A2B",
"T. c #E6712E",
"R. c #E46433",
"E. c #E26C35",
"W. c #E76B38",
"Q. c #E77737",
"!. c #8A3B45",
"~. c #B73A48",
"^. c #B32C44",
"/. c #CC334F",
"(. c #884749",
"). c #984948",
"_. c #934E57",
"`. c #86595B",
"'. c #8E5150",
"]. c #B65557",
"[. c #AD4C53",
"{. c #AC685B",
"}. c #915B63",
"|. c #996967",
" X c #9B787A",
".X c #8C686B",
"XX c #A86869",
"oX c #A87A78",
"OX c #B36F6E",
"+X c #B05265",
"@X c #D55844",
"#X c #C74659",
"$X c #C95150",
"%X c #E55449",
"&X c #E24F48",
"*X c #D86747",
"=X c #D86C56",
"-X c #D16D51",
";X c #E37647",
":X c #E46F52",
">X c #D35871",
",X c #C97668",
"<X c #C87676",
"1X c #D47372",
"2X c #E77D73",
"3X c #E17063",
"4X c #EC853B",
"5X c #E88638",
"6X c #EC923D",
"7X c #F18C3E",
"8X c #B7877B",
"9X c #EA8A42",
"0X c #F29341",
"qX c #EA8A4E",
"wX c #D88768",
"eX c #D48B78",
"rX c #DB9778",
"tX c #E18563",
"yX c #E88A79",
"uX c #EC996D",
"iX c #ECA97B",
"pX c #DD805C",
"aX c #B77C83",
"sX c #DA7388",
"dX c #B28E8D",
"fX c #D98A86",
"gX c #D48997",
"hX c #D19290",
"jX c #E49490",
"kX c #CFA496",
"lX c #EDAC95",
"zX c #DCA8AA",
"xX c #E4B6A9",
"cX c #E6BAB4",
"vX c #EAAEAF",
"bX c #E09CA3",
"nX c #EAC2B7",
"mX c #EAC7B4",
"MX c #ECD3CB",
"NX c #F1D5C5",
"BX c #EAD8D6",
"VX c #F2D9D4",
"CX c #F0CAC9",
"ZX c #EFE6DB",
"AX c #F3E6DB",
"SX c #F3E7E5",
"DX c #EDE3EB",
"FX c #EEDEE1",
/* pixels */
"                                                                                                                                        ",
"                                                                                                                                        ",
"                                                                                                                                        ",
"                                                              dX X'.(.}._.!.`.oXdX                                                      ",
"                                                        |.'.) ) ).).+X+X[.[.^._ T _ (.|.dX                                              ",
"                                                  |.) 8 [.hXcXNXNXnXzXbXgXsXsXsX>X#X~._ 5 (.XX                                          ",
"                                              oX)._ OXxXMXBXCXnXxXlXjXeX,X,X$X$X#X#X/././. .T !.aX                                      ",
"                                            `.8 <XCXVXMXcXvXjXeXwXwXwXtXtXpX=X=X$X$X[.~. .^ ` | S _.                                    ",
"                                        8X) ].cXZXBXCXvXjXyX2X3X=X*X@XV.M.V.V.*X*X;X;X;XL.m.F.H.J.s.0                                   ",
"                                      aXT <XMXZXCXxXhXfXyX2X3X=X%X%X&X&X&X&XB.M.g.i.i.p.V.c.c.c.f.k.a.8 oX                              ",
"                                    |.8 gXFXBXnXvXlXyX=X*X$XV.@X@X%X%XS.S.S.S.S.S.S.e.N.l.6.7.2.2.5.{ F 8 aX                            ",
"                                  oXu.xXSXBXzXfX1X,X1XpX*XC.B.l.3.<.{ L 5.2.6.0.0.e.e.e.r.7.7.7.9.5.5.3.} S oX                          ",
"                                hX_ mXAXVXnXjX,X].~.|  .] 3.l.B.D.D.A.z.z.l.1.o.o.o.2.6.6.1.5.o.<.l.6.6.1.{ )                           ",
"                                _ hXSXVXmXlXuXtX-Xa. .Q c c n n C J ] { <.4.l.N.S.0.6.1.1.1.4.l.z.7.7.4.3.H h )                         ",
"                              _.+XSXVXcXlXiXuXqX;X;XV.' n b E W E E E E Q ^ B / ] 5.2.7.0.N.l.l.6.2.5.J N p s u }.                      ",
"                            oX!.MXBXzXfX,XwXwXtX;XW.E.K.c.} ] m m z v E #.W E b c v n m m M M M N N x k k k a i 5 dX                    ",
"                            0 bXSXvXsX>X#X~.| } a.V.R.Y.U.E.E.C.n.k.} H G M n v E W W W E E E E b c l k p p h A D (.                    ",
"                          XX_.DXCXbX>X#X/.^.( / ~ Q B J k.C.U.U.U.Y.Q.Q.W.R.n.g.' M Q E E E E c v x N G I j.j.p.I D                     ",
"                          '.cXDXhX1X>X/./.-./ ! W W E c v v J <.Z.R.P.Q.9X9X6X5XQ.K.b.X.H J G G K p.V.I.I.L.K.v.j.K (.                  ",
"                        oXXXAXMX<X$X/././.=.#.W E W W W W W E Q n C L b.D.W.Q.0X0X6X6X6X0X9X9X9X5X5X5XQ.H.f.d.t.U K 8                   ",
"                        {.kXSXxX2X$X .Q W @.=.=.@.@.@.@.+.+.@.@.#.W E v m J } c.L.;X9X9X9X6X6X5X5XQ.Q.P.H.n.p.y.K F 8 8X                ",
"                        {.NXAXeX3X@X0.] v b W @.$.$.%.%.%.%.%.%.$.@.@.$.@.+.#.v n M V J L P X.g.p.p.p.p.p.[ [ ` D r = (.                ",
"                        XXZXMXyXV.4.A.z.4.] B z v b b ! Q Q m m N M M m v ! ! W E W W E c R R R l k x f f i e t : ; * q                 ",
"                      |.hXZXzXwX;Xk.X.z.A.A.z.l.4.5.3.3.1.4.h.x.l.z.N.N.l.1.>.V m z E E E E E E R l k k s a y t t ; * %                 ",
"                      |.zXSXfX-Xb.C.Z.<.h.z.A.A.A.A.A.N.N.4.<.g.g.h.<.1.x.z.N.N.0.1.] V m x x x l k k s f i y e : ; - +                 ",
"                      |.xXVX1X:XB.P c.R.c.X.X.z.z.x.h.X.j.b.K.L.E.E.K.n.g.P X.l.N.N.N.N.4.2.] ] G N h h h h h g g 3 4 @ oX              ",
"                      OXnXmX-X@X@XB.P c.W.Q.J.j.k.x.b.U.E.Q.4X4X7X4X4X4X4XQ.H.d.d.X.X.X.<.<.3.3.<.} } ' ` G D S r 1 - @ `.              ",
"                      XXzXcX3X=X@Xg.d.C.R.W.9X9X9X5X5X9X0X0X7XQ.T.K.P.E.T.Q.Q.Q.Q.E.K.C.b.c.j.i.y.K K K F D D S Z 3 4 @ (.              ",
"                      XXgXgX| a.V.K.K.W.R.U.Y.T.5X5X4X4XQ.E.K.Z.k.g.} } } I } <.j.b.n.C.C.C.m.n.c.j.i.i.I K F D Z < 4 O w               ",
"                      OXfXsX^.-./ / ] 3.B.Z.C.K.K.K.n.b.<.H G m v b E E E E c v z N N M U P j.v.v.j.t.t.I K D A r 1 $ o '.              ",
"                      OXeXfX| ( / -.! v v z B B B B v v E W #.+.+.#.b b n V ] ] ' G n x d d p N G [ [ [ [ F D Z < = + . |.              ",
"                      8XrXrXa.9./ ! @.@.@.@.@.@.+.+.@.$.$.+.#.E v z B >.0.7.:.O.:.0.9.} ^ k l l f i e r r , > - & @ . X oX              ",
"                      dXeXiX*Xp.M.} / z Q #.+.$.$.=.@.#.W E z n / 9.9.J Q k k k k R v >.1.H p a s a y t : ; * & # @ . X                 ",
"                      dX,XuX;X*Xc.i.M.3.{ J C C B B ^ ^ / ] 5.2.:...b l s f i i a a k x J <.' h i i y t : ; * & @ O . %                 ",
"                        ].=XZ.W.W.C.h.X.<.4.l.l.l.l.l.l.z.A.N.2...&.! E R R Y Y Y Y a s k / 5.H h e e : : ; * # @ O X 9                 ",
"                        OX&X3.5.c.K.R.R.n.c.k.h.g.g.g.i.} X.P <.4.z.0.0.q.&.v l k s a Y k k C ' G D r ; * * $ @ O o X `.                ",
"                        aX#Xw.*.:.J h.C.K.K.R.R.R.R.R.R.R.R.C.Z.j.P I i.l.z.7.2.>.C n x x d h ` G D g 3 = - # @ O . X dX                ",
"                          #Xw.*.8.w.:.J 1.C.R.U.R.R.R.R.R.R.R.F.F.R.C.k.P I L 3.9.9.3.3.{ ` D A Z r r , r , - & $ X 7                   ",
"                          <Xe.;.;.;.w.8.:.O.4.b.b.k.g.X.L <.k.m.C.C.K.R.K.Z.j.I U U D D D G K I L { H G j e * & @ X `.                  ",
"                          kX| ,.*.*.*.;.w.w.,.q.,.8.w.w.8.*.>.J J <.Z.v.n.K.L.L.G.v.v.v.v.v.j.d.I D r , - & & # . %                     ",
"                            8XM.J >.*.:.&.:.:.:.>.>.:.:.*.*.*.*.*.&.C I k.b.c.c.n.n.n.c.j.i.K D Z r , > * & # O X w                     ",
"                              -XP.J.c.c.Z.Z.J.K.J.J.v.g.J C &.*.*.*.&...G G I i.i.p.y.K K F D A r , > * & # # o 6                       ",
"                              kXL.T.T.T.T.T.T.Y.Y.T.T.L.L.c.H V &.&.&.*./ V M h D D D D D S Z < 1 - $ # @ @ O X  X                      ",
"                                {.Q.P.P.P.L.L.L.E.K.H.I.I.I.J.g.U C / ! &.&.&./ / B N p j e e : = $ @ @ @ @ . w                         ",
"                                  ).} P P P I I K t.v.J.H.G.G.G.v.[ G h M m m m z x d p p e e : * & # # @ o 9                           ",
"                                    s.l.l.7.7.6.4.3.H I p.v.G.v.v.v.p.[ F A A g r r , > > - & # @ @ @ @ . 6                             ",
"                                      u.' ] ] ] ' { } } K K p.v.v.p.t.t.t.y.[ F F D S r , > - & & & # + 6                               ",
"                                        ) g p d d p p h G [ G A K p.p.y.y.K F F A Z < 1 > - & # & # + 9                                 ",
"                                          _.Y s k k s i i i h D D Z S F F F D S Z < 1 = - # # # @ + `.                                  ",
"                                            oXT u a s s s i y t e g g < 1 1 1 1 = - & # # @ @ O 7 .X                                    ",
"                                                XX5 2 y y t t t : : ; = = - - - $ @ @ @ @ + % |.                                        ",
"                                                    |.0 4 2 2 2 2 ; * * * # # @ O o o . 7 `.                                            ",
"                                                          }.0 % $ $ $ $ $ + + + % 9 `.                                                  ",
"                                                                   X X.X.X XdX                                                          ",
"                                                                                                                                        ",
"                                                                                                                                        ",
"                                                                                                                                        ",
"                                                                                                                                        ",
"                                                                                                                                        ",
"                                                                                                                                        "
};
