/* XPM */
static char *a9ccdae3e6ed458bba2d8c352515815a8bwfbW5ag1BVyjgY[] = {
/* columns rows colors chars-per-pixel */
"60 60 177 2 ",
"   c None",
".  c #A25F0B",
"X  c #92660A",
"o  c #99660F",
"O  c #926A0E",
"+  c #8F661F",
"@  c #976C1D",
"#  c #99651D",
"$  c #A16007",
"%  c #A3610C",
"&  c #A36A0E",
"*  c #B86E06",
"=  c #B36A0B",
"-  c #A1770A",
";  c #A9740D",
":  c #BC7106",
">  c #A26016",
",  c #AE6F17",
"<  c #AD691B",
"1  c #B06913",
"2  c #B26B19",
"3  c #AB7314",
"4  c #AE7914",
"5  c #A6751B",
"6  c #AA721A",
"7  c #AD7C18",
"8  c #BC7C14",
"9  c #8D6021",
"0  c #9E6727",
"q  c #9F6923",
"w  c #96672B",
"e  c #9D6D2A",
"r  c #9B7127",
"t  c #9F7C25",
"y  c #937231",
"u  c #9A7230",
"i  c #A46627",
"p  c #AB6521",
"a  c #A76D22",
"s  c #A96820",
"d  c #A07420",
"f  c #AD7721",
"g  c #AE6F32",
"h  c #A67535",
"j  c #A97635",
"k  c #A97837",
"l  c #A2753B",
"z  c #AB743C",
"x  c #A6783B",
"c  c #AC7939",
"v  c #B17A3E",
"b  c #C17607",
"n  c #C1770F",
"m  c #AB7241",
"M  c #A07B42",
"N  c #AD7C43",
"B  c #B17C41",
"V  c #B9810D",
"C  c #BE8310",
"Z  c #BD8E17",
"A  c #BA801C",
"S  c #B38217",
"D  c #BC9114",
"F  c #B98439",
"G  c #CC8B06",
"H  c #C3830B",
"J  c #C28A0A",
"K  c #CF8808",
"L  c #CB8405",
"P  c #D18D0C",
"I  c #DD8E0A",
"U  c #CD920D",
"Y  c #C2920E",
"T  c #D2950E",
"R  c #D59E0D",
"E  c #DA990E",
"W  c #CB8A13",
"Q  c #C28212",
"!  c #CA9012",
"~  c #C8931E",
"^  c #C59312",
"/  c #D49611",
"(  c #E28F0B",
")  c #ED930B",
"_  c #E79B0D",
"`  c #F39706",
"'  c #F39C02",
"]  c #F19609",
"[  c #F29B09",
"{  c #DCA40C",
"}  c #CFA113",
"|  c #D3A717",
" . c #D9A01A",
".. c #DFAD18",
"X. c #DDB710",
"o. c #D9B61C",
"O. c #ECA200",
"+. c #E3A70D",
"@. c #E5AB0E",
"#. c #F3A301",
"$. c #F3AD01",
"%. c #F2AD08",
"&. c #E5B705",
"*. c #EEBA01",
"=. c #E8B20E",
"-. c #EEBC0C",
";. c #ECB103",
":. c #F4B405",
">. c #F4B804",
",. c #F5B609",
"<. c #F3BC0B",
"1. c #E4AC11",
"2. c #E5A412",
"3. c #F0A312",
"4. c #F5AE11",
"5. c #E7BD13",
"6. c #ECBC13",
"7. c #E7B51C",
"8. c #E4BF1C",
"9. c #EFB91C",
"0. c #F1B610",
"q. c #F4BD13",
"w. c #DC9E24",
"e. c #EAB026",
"r. c #F3BB21",
"t. c #F4BD36",
"y. c #EEC604",
"u. c #EECA03",
"i. c #ECC50C",
"p. c #EBCA0D",
"a. c #F4C603",
"s. c #F3C902",
"d. c #F4C50A",
"f. c #F3C90A",
"g. c #EEC315",
"h. c #E9C41F",
"j. c #E8C919",
"k. c #F3C512",
"l. c #F4C810",
"z. c #F3C41A",
"x. c #E9C320",
"c. c #ECC72D",
"v. c #F3C120",
"b. c #F0CD24",
"n. c #EDCD3D",
"m. c #F4C335",
"M. c #F2C937",
"N. c #EED43A",
"B. c #B2844C",
"V. c #B38953",
"C. c #DBA641",
"Z. c #CDB345",
"A. c #E9D144",
"S. c #E7D34A",
"D. c #E0CA5A",
"F. c #F5DD5B",
"G. c #EED760",
"H. c #ECD570",
"J. c #EEDB75",
"K. c #F3DA7D",
"L. c #F5E169",
"P. c #F4D983",
"I. c #F1D78B",
"U. c #F5DA89",
"Y. c #F5E785",
"T. c #F3E48D",
"R. c #F1EC94",
"E. c #F4E799",
"W. c #F4EA9A",
"Q. c #EDEEAE",
"!. c #F3E7A4",
"~. c #F2ECA1",
"^. c #F5E9AE",
"/. c #EAF0A5",
"(. c #EAF1AA",
"). c #F4E7B5",
"_. c #F2E9B0",
/* pixels */
"                                                                                                                        ",
"                                                                                                                        ",
"                                                                                                                        ",
"                                                        # d r w                                                         ",
"                                                      0 8 w.C.F e                                                       ",
"                                                    M 7 t.t.K.I.t                                                       ",
"                                                    e o.<.m.T.E.Z.9                                                     ",
"                                                  N 6 j.d.m.T.~.D.#                                                     ",
"                                                  a W i.f.M.T./.H.6 l                                                   ",
"                                                  f E p.f.n.R.(.P.A e                                                   ",
"                                                  7 +.l.i.n.R.Q.U.~ o                                                   ",
"                                                  4 =.d.i.A.W._.P.| 5                                                   ",
"                                                  S 6.a.p.S.~.).K.X.4                                                   ",
"                                                  C <.a.p.S.!.).K.8.8                                                   ",
"                                                  H <.a.p.A.E.^.J.x.8                                                   ",
"                                                z J a.s.u.N.Y.W.G.g.H                                                   ",
"                                                N J y.s.u.b.F.L.n.f.G                                                   ",
"                                                z Y p.s.a.z.c.c.h.f.G                                                   ",
"                                                z ^ i.a.*.-.6.5.g.d.G v                                                 ",
"                                                g ! 6.<.<.v.z.y.&.d.P B                                                 ",
"                                                p P 0.:.4.r.k.f.-.<.K B                                                 ",
"                                                s I O.O.[ 3.<.s.d.<.L v                                                 ",
"                                                2 ) ' ' [ _ ;.a.f.k.P c                                                 ",
"                                                n [ ' ' ' ' #.>.f.d.T j                                                 ",
"                                                b ` ' [ ' ' ' :.f.k./ h                                                 ",
"                                                : ` ' [ ' ' ' $.s.k./ h                                                 ",
"                                                * ` ' [ ' ' ' $.a.k./ h                                                 ",
"                                                = ] ' [ ' ' ' $.a.k./ N                                                 ",
"                                                = ] ' [ ' ' ' $.a.k.T B.                                                ",
"                                                = ) ' [ ' ' ' $.a.k.T B.                                                ",
"                                                1 ) ' [ ' ' ' $.a.k.U V.                                                ",
"                                                2 ) ' [ ' ' #.:.f.k.U B.                                                ",
"                                                < ) ' [ ' ' #.,.f.k.U c                                                 ",
"                                                < ( ' O.O.O.>.d.s.d.T k                                                 ",
"                                                . I O.$.%.>.a.a.s.d.T k                                                 ",
"                                                . _ :.<.q.d.a.f.s.d.T j                                                 ",
"                                                . 2.d.d.d.d.a.f.s.d.T j                                                 ",
"                                                % 1.f.a.d.a.s.s.s.d.T j                                                 ",
"                                                % 1.s.a.d.a.s.s.a.d.T h                                                 ",
"                                                % 1.s.s.d.a.s.a.a.d./ h                                                 ",
"                                                % @.s.s.d.a.s.a.a.d./ h                                                 ",
"                                                % 1.s.a.d.a.s.a.a.d.T h                                                 ",
"                                                % 1.s.a.d.a.s.a.a.d.T x                                                 ",
"                                                $ @.s.a.a.a.s.u.s.d./ N                                                 ",
"                                                $ @.f.d.a.a.s.u.u.z.W N                                                 ",
"                                                . +.f.d.a.a.f.f.y.z.W B.                                                ",
"                                                % +.s.f.a.a.a.f.a.z.Q                                                   ",
"                                                > { s.a.s.a.d.d.a.v.8                                                   ",
"                                                i R s.f.s.s.a.a.d.7.4                                                   ",
"                                                m U a.y.s.s.a.f.d.} 5                                                   ",
"                                                  V g.d.s.s.s.a.d.D @                                                   ",
"                                                  4 1.z.s.s.a.a.z.- u                                                   ",
"                                                  6 J r.f.s.a.d...O                                                     ",
"                                                  g , e.d.a.s.d.Z +                                                     ",
"                                                    x S 9.q.q. .@                                                       ",
"                                                      y X ; & q                                                         ",
"                                                        y l l                                                           ",
"                                                                                                                        ",
"                                                                                                                        ",
"                                                                                                                        "
};
