/* XPM */
static char *_7b3bf00a6434fbee67ae6a756fc4621L8vV3CqG92uEykis[] = {
/* columns rows colors chars-per-pixel */
"60 60 220 2 ",
"   c None",
".  c #A65F1B",
"X  c #AB5D17",
"o  c #B45E1A",
"O  c #9A6908",
"+  c #996517",
"@  c #AA660A",
"#  c #BB6A0C",
"$  c #B6680A",
"%  c #A77407",
"&  c #B67606",
"*  c #A56713",
"=  c #AA6013",
"-  c #A46C13",
";  c #AB6A13",
":  c #A2671A",
">  c #A46E1D",
",  c #AC6C1D",
"<  c #B3631B",
"1  c #B76814",
"2  c #A87416",
"3  c #BA7314",
"4  c #B67618",
"5  c #9E5F24",
"6  c #AE5C23",
"7  c #9A6A2A",
"8  c #996C39",
"9  c #A56525",
"0  c #A56C2A",
"q  c #AA6C2A",
"w  c #A66A27",
"e  c #B26827",
"r  c #AA712B",
"t  c #B87820",
"y  c #AA6C38",
"u  c #B06D33",
"i  c #AD793E",
"p  c #A87637",
"a  c #B57F3C",
"s  c #B37833",
"d  c #C26E05",
"f  c #C3730C",
"g  c #CD7908",
"h  c #D5790B",
"j  c #C56412",
"k  c #C57E10",
"l  c #D37E10",
"z  c #C16823",
"x  c #AF6D47",
"c  c #AB7C44",
"v  c #A57845",
"b  c #B5774A",
"n  c #B27756",
"m  c #B87E62",
"M  c #AB7E65",
"N  c #C07E4D",
"B  c #BB8710",
"V  c #B58020",
"C  c #C48908",
"Z  c #D4840E",
"A  c #D6880A",
"S  c #C9950E",
"D  c #D9960B",
"F  c #CA8B13",
"G  c #DD8212",
"H  c #D48D12",
"J  c #D58816",
"K  c #C79010",
"L  c #DA9713",
"P  c #E38C0C",
"I  c #E3850C",
"U  c #ED9D03",
"Y  c #E4970C",
"T  c #EC950A",
"R  c #ED9C0A",
"E  c #E69D0C",
"W  c #F39C03",
"Q  c #F2950C",
"!  c #F39A0B",
"~  c #F49700",
"^  c #E58C14",
"/  c #E5891A",
"(  c #EC8E12",
")  c #EB9313",
"_  c #E79915",
"`  c #F29516",
"'  c #DBA714",
"]  c #DEB016",
"[  c #ECA201",
"{  c #EDAC02",
"}  c #E8A707",
"|  c #F2A302",
" . c #F3AC03",
".. c #EEB201",
"X. c #EDB40A",
"o. c #EFBD09",
"O. c #EEBC07",
"+. c #F2B404",
"@. c #F3BC04",
"#. c #F4B509",
"$. c #F4BD0A",
"%. c #ECA412",
"&. c #E8A915",
"*. c #E8BA18",
"=. c #F3B112",
"-. c #F4BB15",
";. c #F1BA1C",
":. c #C58723",
">. c #C99623",
",. c #D59D29",
"<. c #CD973C",
"1. c #EA9623",
"2. c #D4A527",
"3. c #E6B43A",
"4. c #E4AA35",
"5. c #EDCA02",
"6. c #EDC50A",
"7. c #ECC809",
"8. c #F5C603",
"9. c #F3C901",
"0. c #F4C40A",
"q. c #F2C909",
"w. c #EDC612",
"e. c #EACA14",
"r. c #ECC41B",
"t. c #EBCB1F",
"y. c #F3C412",
"u. c #F3C71C",
"i. c #E6D117",
"p. c #E9D004",
"a. c #E9C923",
"s. c #E9D42D",
"d. c #ECCD3C",
"f. c #F3D13F",
"g. c #F0D030",
"h. c #AB8245",
"j. c #B58345",
"k. c #A8855D",
"l. c #B38454",
"z. c #B48A53",
"x. c #B7855A",
"c. c #BD8C64",
"v. c #BA8866",
"b. c #BE9869",
"n. c #BB8D71",
"m. c #BC9774",
"M. c #DDAF49",
"N. c #D8B156",
"B. c #C68A6D",
"V. c #C3946B",
"C. c #C79A6A",
"Z. c #C19B73",
"A. c #C19477",
"S. c #D29E71",
"D. c #C8A67B",
"F. c #D2A17E",
"G. c #E1BD65",
"H. c #F3C746",
"J. c #EED84A",
"K. c #F2CB5A",
"L. c #EAD554",
"P. c #F2D45B",
"I. c #ECC852",
"U. c #F0E15F",
"Y. c #E7C866",
"T. c #EFD16B",
"R. c #F4DB6B",
"E. c #F2D463",
"W. c #EDDE73",
"Q. c #EFD577",
"!. c #F3DB74",
"~. c #F3E56F",
"^. c #F4E379",
"/. c #F3E275",
"(. c #EBE364",
"). c #BEA890",
"_. c #C89A87",
"`. c #C6A584",
"'. c #CCA984",
"]. c #CCA58A",
"[. c #D3AC8B",
"{. c #D6A789",
"}. c #CFB88F",
"|. c #CEAE9A",
" X c #DBAD98",
".X c #CCB297",
"XX c #CBB49C",
"oX c #D4BC9C",
"OX c #D7B898",
"+X c #E5B786",
"@X c #D4B6A3",
"#X c #DBBDA4",
"$X c #DDB9AB",
"%X c #D3B0A7",
"&X c #E5B9A3",
"*X c #F3DD8E",
"=X c #F5DE84",
"-X c #F4DE9E",
";X c #F4E384",
":X c #F5E38C",
">X c #F4E494",
",X c #F5E59B",
"<X c #F4E99B",
"1X c #F0E891",
"2X c #DCC3A5",
"3X c #DCC7AA",
"4X c #DAC5B1",
"5X c #E7C5A7",
"6X c #E5C8B6",
"7X c #F5E4A4",
"8X c #F4E9A5",
"9X c #F4E6AB",
"0X c #F3E9AC",
"qX c #F4E6B3",
"wX c #F4E9B5",
"eX c #F4E5B9",
"rX c #F5EABC",
"tX c #EEE8A8",
"yX c #ECD4C1",
"uX c #F4E4C5",
/* pixels */
"                                                                                                                        ",
"                                                                                                                        ",
"                                                                                                                        ",
"                                                                                                                        ",
"                                                                                                                        ",
"                                                            %X                                                          ",
"                                                          `.8 k.                                                        ",
"                                                        %Xv - + ].                                                      ",
"                                                        n 2 ] S n                                                       ",
"                                                      _.X L e.*.9                                                       ",
"                                                      v.g ;.f.J.t n.                                                    ",
"                                                    ].. { r.~.>XM.> '.                                                  ",
"                                                    m.$ 8.t.:XeXQ.% c                                                   ",
"                                                  `.y H 5.t.*XuX>X>.r                                                   ",
"                                                  N j %.9.e.!.eX<XI.t B.                                                ",
"                                                |.u l =.9.e.R.qX8XE.:.b                                                 ",
"                                                n.3 %.$.9.w.P.7X0X^.3.> `.                                              ",
"                                              5Xy H +.q.9.6.H.=XrX,XL.B p                                               ",
"                                              C.; &.8.9.9.8.a.R.eXwXW.2.* c.                                            ",
"                                            {.* S $.8.5.9.9.0.f.9XuX<XI.J q &X                                          ",
"                                           Xq C o.8.8.5.9.8.8.u.;XeXwX:XK.t s +X5X                                      ",
"                            4X3X&XOX}.D.z.0 F ;.9.8.8.5.9.8.8.0.J.<XwX0X>XY.2 - a b.`.XX2X3X                            ",
"              &X XZ.Z.z.p 7 + + O O O % K ] y.q.9.8.8.5.9.0.0.9.i.(.8XrX0X8X*XG.<.V 2 O O + 7 c z.Z.Z.m.#X6X            ",
"          A.y 5 + @ & B S &.&.&.*.-.-.y.8.9.9.5.9.8.8.9.8.y.0.9.p.s.!.7X9XqXwX9X>X!.K.H.3.4.,.>.:.4 > 7 7 8 x.@X        ",
"          c.X 3 ' X.o.6.7.6.8.8.q.q.q.8.8.8.9.8.8.8.8.8.8.8.8.8.8.0.u.P.*X,X8X0X0X0X9X7X-X:X/.W.Q.T.T.Y.N.<.1 m.        ",
"            l., L [ ..O.0.0.8.8.q.q.q.9.9.8.8.8.8.8.8.8.8.8.8.8.0.8.0.w.i.s.J.U.^.:X,X7X9X9X9X9XqXtX1X^.K.<.u `.        ",
"            oXl.# Y [ [  .#.0.0.9.9.8.8.8.8.8.8.8.8.8.8.8.8.8.8.0.0.0.9.5.5.e.a.d.J.P.R./.;X:X;X;XW.L.d.,.* V.          ",
"              #Xb 1 / W | [  .#.8.8.8.8.8.8.8.8.8.8.8.8.8.8.8.8.8.8.8.8.9.9.0.0.y.w.w.e.e.t.a.a.r.r.;.F > C.yX          ",
"                  m o I | [ W | { @.8.8.8.8.9.9.8.8.8.8.8.8.8.8.8.8.8.8.8.8.8.8.8.8.8.5.5.9.9.9.+.W g e A.              ",
"                    x.# P U W U [  .@.8.8.8.9.9.8.8.8.8.8.8.8.8.8.8.8.8.8.8.8.8.8.8.8.0.q.0.@...[ g e B.                ",
"                    #Xx.< / U U W U { @.8.8.9.9.9.8.8.8.8.8.8.8.8.8.8.8.8.8.8.8.8.8.8.8.8.+.R T g u D.                  ",
"                      @Xn 1 _ ! W U U +.8.8.9.9.9.8.8.8.8.8.8.9.8.8.8.8.9.9.9.9.9.9.8.8...[ Q h 6 ].                    ",
"                          z.$ / ! W U [ @.8.9.9.9.8.8.8.8.8.8.8.8.8.8.8.8.9.9.9.9.8.0.#.U T f 9  X                      ",
"                          3Xx.X ^ ! W [ ..8.8.8.9.9.8.8.8.8.8.8.8.8.8.8.8.9.9.9.9.8.#.! L 3 c oX                        ",
"                              k.3 Q ~ W { 8.8.8.9.9.8.8.8.8.8.8.8.8.8.8.8.9.9.q.9.8. .) 4 v ).                          ",
"                              oXs h Q W [ @.8.0.8.9.8.8.8.8.8.8.8.8.8.8.8.9.9.8.8.@.| g i '.                            ",
"                                S.# ) ! [ @.8.0.8.9.8.8.8.8.8.8.8.8.8.8.8.9.q.0.0.#.U @ [.                              ",
"                                [.@ ^ ! [ 8.8.0.q.9.8.8.8.8.8.8.8.8.8.8.8.9.9.8.0.X.Y . 5X                              ",
"                                _.1 ) R { 8.8.0.q.9.9.9.9.9.9.9.9.9.9.8.8.5.9.8.8.X.D 0 6X                              ",
"                                m.3 _ U +.8.8.8.9.9.9.9.9.9.9.9.9.9.9.8.8.5.9.9.9.#.D 9 4X                              ",
"                                x.k T [ +.8.8.8.8.8.8.8.8.8.8.8.8.8.8.8.8.9.9.9.9.@.} + #X                              ",
"                                i Z ! | @.9.8.0.8.$.#.+.{ { { { +.#.#.$.0.9.9.9.9.0.%.@ [.                              ",
"                              5Xr P W | 0.9.8.0.8. .| U U [ [ U U [  .#.0.q.8.8.9.0.=.$ ].                              ",
"                              {.< ) U { 0.8.0.#.{ U W W W W W W W W W [ { #.8.8.9.0.-.3 V.                              ",
"                              F.j 1.E { @.$. .W W ~ W ! ! ! ! ! W | W U R [ @.8.8.8.y.K b &X                            ",
"                              C.d ` U | | | W U [ W ! Q A g l Z ) ! ~ W W W | @.9.5.5.' u  X                            ",
"                              j.Z ! W W ~ ~ ! ! R ) l # e a j.r ; l ( ! W ! U { $.5.5.*.: C.                            ",
"                            OX0 A R W W W ~ Q ` G @ 9 C.5X    2XD.9 = Z T ! W [ { 0.0.;.% z.                            ",
"                            [.: D R W W W ! G $ e V..X            oXm.0 & H U W W =.-.u.& z.                            ",
"                            V.* U ! Q ( G # q b.oX                    oXb.0 & P Q W  .$.C h.                            ",
"                            l.$ ~ Q / 1 5 v.2X                            $Xb = f Y [ #.A p                             ",
"                            l.1 I # w x.`.                                    F.c - & E J i                             ",
"                            c.0 p c.[.                                            m.h.; z y XX                          ",
"                            OX`..X                                                    V.x M                             ",
"                                                                                                                        ",
"                                                                                                                        ",
"                                                                                                                        ",
"                                                                                                                        ",
"                                                                                                                        ",
"                                                                                                                        "
};
