/* XPM */
static char *_2fa6017d2914f87ef56455bce44d0b285Chn331WaC5unmv[] = {
/* columns rows colors chars-per-pixel */
"60 60 144 2 ",
"   c None",
".  c #EF7A01",
"X  c #F57704",
"o  c #F37D03",
"O  c #F07F0F",
"+  c #DD961D",
"@  c #EE8503",
"#  c #EE8B04",
"$  c #EE8209",
"%  c #EA8E0E",
"&  c #F38503",
"*  c #F38C03",
"=  c #F38409",
"-  c #F38B0A",
";  c #ED9103",
":  c #EF9A07",
">  c #EE940B",
",  c #EE9C0E",
"<  c #F49402",
"1  c #F49B02",
"2  c #F2920B",
"3  c #F29A0B",
"4  c #ED8B15",
"5  c #E68F1C",
"6  c #EC8B1E",
"7  c #F38E11",
"8  c #E69616",
"9  c #ED9415",
"0  c #EC9B14",
"q  c #ED951B",
"w  c #EF9C1B",
"e  c #F29313",
"r  c #F09D12",
"t  c #F0971F",
"y  c #F29D1E",
"u  c #EEA30E",
"i  c #EFA80E",
"p  c #F4A303",
"a  c #F5AB04",
"s  c #F3A30B",
"d  c #F3AB0B",
"f  c #F5B304",
"g  c #F5BA05",
"h  c #F4B50B",
"j  c #F5BC0B",
"k  c #EEA315",
"l  c #E7A21A",
"z  c #EDA41D",
"x  c #EEA81D",
"c  c #F2A315",
"v  c #F3AB12",
"b  c #F3A81E",
"n  c #EDB917",
"m  c #F4B313",
"M  c #F3BE11",
"N  c #F0B51F",
"B  c #F2BA1B",
"V  c #E38F22",
"C  c #EE8821",
"Z  c #EB9522",
"A  c #EE9C22",
"S  c #F19D2D",
"D  c #EE9B38",
"F  c #E5A127",
"G  c #EDA225",
"H  c #EAAB24",
"J  c #EDA42B",
"K  c #E5AD2A",
"L  c #EAAC2C",
"P  c #F1AC21",
"I  c #F1AC2C",
"U  c #EBB323",
"Y  c #EEBF20",
"T  c #E7B228",
"R  c #EFB92E",
"E  c #F1B62B",
"W  c #E8A533",
"Q  c #EDA830",
"!  c #F1A435",
"~  c #EAB331",
"^  c #E5BA34",
"/  c #ECBE34",
"(  c #F1B633",
")  c #F4C207",
"_  c #F3C20A",
"`  c #F4C008",
"'  c #F4C009",
"]  c #F5C009",
"[  c #F4C109",
"{  c #F4C208",
"}  c #F4C00A",
"|  c #F5C10A",
" . c #F5C10B",
".. c #F5C20A",
"X. c #F5C20B",
"o. c #F4C30B",
"O. c #F5C30B",
"+. c #F3C40B",
"@. c #F0C00C",
"#. c #F5C10E",
"$. c #F4C10F",
"%. c #F4C40C",
"&. c #F5C40C",
"*. c #F5C40D",
"=. c #F4C40F",
"-. c #F5C40F",
";. c #F5C60F",
":. c #F5C10D",
">. c #F5C110",
",. c #F5C213",
"<. c #F5C511",
"1. c #F5C611",
"2. c #F5C413",
"3. c #F4C515",
"4. c #F5C614",
"5. c #F4C616",
"6. c #F5C413",
"7. c #F5C816",
"8. c #F5C817",
"9. c #F5C619",
"0. c #F5C91D",
"q. c #E7C320",
"w. c #F4CB23",
"e. c #E6CA3B",
"r. c #F0B440",
"t. c #F0BD41",
"y. c #EDBF54",
"u. c #EFBE56",
"i. c #EFB358",
"p. c #E9C344",
"a. c #EEC442",
"s. c #F3C54A",
"d. c #EECC53",
"f. c #E7CA5E",
"g. c #EBD473",
"h. c #F2D194",
"j. c #F1D29B",
"k. c #F4DDA0",
"l. c #F0E5BF",
"z. c #EFE4C5",
"x. c #F1E6C4",
"c. c #F3E6CA",
"v. c #F3EFE4",
"b. c #F2EFE6",
/* pixels */
"                                                                                                                        ",
"                                                                                                                        ",
"                                                                                                                        ",
"                                                          D 5 +                                                         ",
"                                                        Z # & & 4 Z                                                     ",
"                                                      9 * * & & & = q                                                   ",
"                                                    9 * * < < < & & * S                                                 ",
"                                                  w * * < s d s < & & 2                                                 ",
"                                                  2 < 2 s h h h d < * & w                                               ",
"                                                9 * < p h h h h h p < - * W                                             ",
"                                              F * * 3 d m h h h h h p < * 0                                             ",
"                                              q * e h.p.m j j j j j h 1 - < H                                           ",
"                                              * * i.b.f.h j j j j j h a 1 * 3                                           ",
"                                            z * > j.b.t.j j }  .} j j f p < < L                                         ",
"                                            e # e z.x.N g } } } } } g g a 1 < 0                                         ",
"                                          H - ; y c.g.h g ) } } } } j g a p < *                                         ",
"                                          , * < 3 y.n g @.} } } } } } g g p 3 & z                                       ",
"                                          2 2 1 i f h j ) } } &.&.&.} } g a p 1 r                                       ",
"                                        G 2 1 c j.B j j _ &.&.&.&.&.+.} j g d 1 1 L ~ L J G J                           ",
"                      ! J w 3 3 e e 2 2 2 3 s y.l.B j  .&.<.<.<.<.<.&.&. .j h a 1 1 < * & * * * - e e w G               ",
"              Z 9 % # = & o o o & & * < 1 a v s.d.j ,.5.5.8.8.8.8.8.8.5.<.,.j h d s 1 2 * = = o & @ @ @ & - r P         ",
"          V $ o o o o o o o & & & * < 1 s a m M >.6.5.9.0.0.0.0.0.0.9.9.5.5.,.j j h d p 1 < < < < * & * & & # ; : K     ",
"        4 o o & & & & & * * * 2 1 1 p d d h M >.5.9.0.0.w.w.w.w.w.w.w.0.0.9.5.,. .j j h d a p p 1 1 1 1 < * * & * 2 J   ",
"      6 o & = & & * < < < 1 1 1 p a a h h j ,.9.0.0.0.w.w.w.w.w.w.w.w.w.0.0.0.9.5. .j j h f a a a p p p 1 1 < < < < >   ",
"      & o & & * < 1 1 1 p p p a a a h j M ,.9.9.0.w.w.w.w.w.w.w.w.w.w.w.w.w.0.0.9.<. .j j g f f a a p p p 1 1 1 1 < < ^ ",
"      - $ & & < 1 1 p p p a a a f g j j ,.9.9.0.w.w.w.w.w.w.w.w.w.w.w.w.w.w.w.0.9.5.,. .j g g f a a p p p p 1 1 1 < 1   ",
"      2 & & * < 1 p p p a a f f f g j ,.5.9.0.w.w.w.w.w.w.w.w.w.w.w.w.w.w.w.w.w.0.9.<. .j j g f a a p p p 1 1 1 < < s   ",
"      c & & * < 1 p p a a f g g g j j ,.9.0.w.w.w.w.w.w.w.w.w.w.w.w.w.w.w.w.w.w.0.9.5. .j j g a a a p p p 1 1 < * * L   ",
"      U * = * < 1 p p a a f g g g j j ,.9.w.w.w.w.w.w.w.w.w.w.w.w.w.w.w.w.w.w.w.0.9.5.,.j j g a a p p p 1 1 < * & ,     ",
"        k < * * < 1 p a a f g g g j  .5.9.w.w.w.w.w.w.w.w.w.w.w.w.w.w.w.w.w.w.w.w.9.5.,.j h f a a p p 1 1 < * * - L     ",
"          k * * * 1 p p a a f g g j  .5.9.w.w.w.w.w.w.w.w.w.w.w.w.w.w.w.w.w.w.w.w.9.5.M j h f a p p 1 1 < * & * J       ",
"          ^ , * * * < 1 p a f g j j  .5.0.0.w.w.w.w.w.w.w.w.w.w.w.w.w.w.w.w.w.w.w.9.5.j j h a a p 1 1 < < & = q         ",
"            ~ 3 * * * < 1 p a f h j  .5.9.0.w.w.w.w.w.w.w.w.w.w.w.w.w.w.w.w.w.w.0.9.,.j h h a p p 1 < * = & 9           ",
"              ( 0 & & * < 1 p a h j j <.9.0.w.w.w.w.w.w.w.w.w.w.w.w.w.w.w.w.w.w.0.5.,.j h a a p 1 < * & = 9             ",
"                ~ r * & * < 1 p f h j ,.5.9.0.w.w.w.w.w.w.w.w.w.w.w.w.w.w.w.w.0.9.,.j j h a p 1 < & & * 9               ",
"                    u & & < 1 p a f j j <.5.0.w.w.w.w.w.w.w.w.w.w.w.w.w.w.w.w.0.9.,.j j f a p < * & = q                 ",
"                      x * = < 1 p a h j ,.5.9.0.w.w.w.w.w.w.w.w.w.w.w.w.w.w.0.0.5.,.j h f a 1 * & r G                   ",
"                        J - * < p a h j j ,.9.0.0.w.w.w.w.w.w.w.w.w.w.w.w.w.0.9.,.j j g f p 1 * b                       ",
"                          F * - 1 p a h j  .,.9.0.0.w.w.w.w.w.w.w.w.w.w.w.0.9.5. .j j g a p < < E                       ",
"                            9 * 1 p a f j j ,.5.9.0.0.w.w.w.w.w.w.w.w.w.0.9.5.<. .j g f a p 1 2 U                       ",
"                          I 7 * < p a f g j j ,.<.9.0.0.0.w.w.w.w.w.0.0.9.8.<. .} g g f f p 1 < c                       ",
"                          z * & < p a a g j j j  .5.9.9.0.0.0.0.0.0.0.9.5.<. .} } g g g f a p < ,                       ",
"                          w & * < 1 a a g g j j  .,.5.5.9.9.9.9.9.9.9.5.<. .} } g g g g f a p 1 < T                     ",
"                          2 = # < p a a f g g j j  . .,.<.5.5.5.5.,.,. . .} j g g g g g f a a 1 < H                     ",
"                          * & < < p a a f f g g j j j j j ,.,.,.,.M j j j g g g g g g g f f a p < c                     ",
"                        G * & < 1 p a a f f g g g g j j j j j j j j j j g g g g g g g g f f a p 1 3                     ",
"                        G * & < 1 p a f f g g g g g g h h g g g g h h g g g g g g g f f f f a p 1 <                     ",
"                        r * * 1 p a a f f g g g g g f f a a a a a a a a a f f f f f f f f a a p 1 < G                   ",
"                        r * < 1 p a a f f g g f f f a a p p p p p p p p a a f f f f f f a a p p 1 < y                   ",
"                        c 2 < 1 p a a f f f f a a p p 1 < < * < < 1 1 1 p p p a a a a a a a p p 1 < 0                   ",
"                        s < 1 1 p a a a f a a p p 1 2 * & = < < * - * < 1 1 p p p p a a p p p p 1 < 3                   ",
"                        s < 1 1 p a a a a p p 1 < < & o o 2 E   z < = * < < < 1 1 1 1 p p 1 1 1 1 < 3                   ",
"                        v 1 1 1 1 p p p 1 1 < * & o o o Z r.      Q q = & & * < < < < 1 1 1 1 1 1 2 0                   ",
"                        N 3 1 < 1 1 1 1 < < * & o o = A               q = o & & * * * < < < < < < < l                   ",
"                        q.c < 2 < < < * * = & & * q                       6 & o o o & * * * * ; * <                     ",
"                        e.v < - & & & & & * 2 k L                             C o . X X o & & = * ,                     ",
"                          / v 2 * * * 3 c U                                       6 $ $ o o O = 8                       ",
"                            a.Y h m E R                                                 t 2 2 A                         ",
"                                                                                                                        ",
"                                                                                                                        "
};
