/* XPM */
static char *_d9e5345cfbc4b18d40ab65601868f1dGlPIeyNdmM1j5kdX[] = {
/* columns rows colors chars-per-pixel */
"60 60 218 2 ",
"   c None",
".  c #2B193A",
"X  c #2B183B",
"o  c #33183F",
"O  c #32173E",
"+  c #2D2237",
"@  c #363939",
"#  c #342D3A",
"$  c #4F2D3C",
"%  c #374837",
"&  c #395637",
"*  c #365F2F",
"=  c #346B2E",
"-  c #34672F",
";  c #33742B",
":  c #367D2B",
">  c #387631",
",  c #485937",
"<  c #6D413B",
"1  c #466A39",
"2  c #4A7839",
"3  c #586F2C",
"4  c #677E27",
"5  c #341840",
"6  c #351942",
"7  c #3C2749",
"8  c #383649",
"9  c #3B2D5C",
"0  c #392656",
"q  c #3B345A",
"w  c #3E2E62",
"e  c #3C3364",
"r  c #3D3669",
"t  c #3E396C",
"y  c #3E3D71",
"u  c #473948",
"i  c #442A5E",
"p  c #4A285A",
"a  c #4A3654",
"s  c #4E335A",
"d  c #483754",
"f  c #543D5D",
"g  c #563953",
"h  c #492C4D",
"j  c #663A5A",
"k  c #61374D",
"l  c #442B62",
"z  c #4B2B63",
"x  c #472D6B",
"c  c #42346C",
"v  c #493367",
"b  c #563867",
"n  c #4C3273",
"m  c #443A73",
"M  c #54387B",
"N  c #4E2E6C",
"B  c #613E65",
"V  c #394242",
"C  c #3D5A47",
"Z  c #3E6341",
"A  c #3F4275",
"S  c #3F4479",
"D  c #454848",
"F  c #4B5C44",
"G  c #4B5548",
"H  c #494753",
"J  c #54465A",
"K  c #555259",
"L  c #4F5853",
"P  c #6E524F",
"I  c #4A6243",
"U  c #4D6943",
"Y  c #51654A",
"T  c #527C42",
"R  c #53714A",
"E  c #5B6359",
"W  c #5D7658",
"Q  c #4F7541",
"!  c #5A4466",
"~  c #414176",
"^  c #404479",
"/  c #4F4A6B",
"(  c #644A6B",
")  c #774861",
"_  c #67546C",
"`  c #6A5578",
"'  c #725C7C",
"]  c #765E73",
"[  c #70546E",
"{  c #676566",
"}  c #6A7968",
"|  c #746778",
" . c #777579",
".. c #6A6475",
"X. c #7F674C",
"o. c #98783A",
"O. c #91723E",
"+. c #A4752F",
"@. c #885B58",
"#. c #93754C",
"$. c #AC7B5E",
"%. c #875866",
"&. c #927169",
"*. c #AD7763",
"=. c #AD7762",
"-. c #33B71C",
";. c #33AD1E",
":. c #378929",
">. c #379725",
",. c #33A322",
"<. c #35AC21",
"1. c #3AA624",
"2. c #35B220",
"3. c #4B8436",
"4. c #4A8936",
"5. c #548A3B",
"6. c #4D9433",
"7. c #4F9B35",
"8. c #539838",
"9. c #458C2F",
"0. c #53B92E",
"q. c #52A235",
"w. c #55AC34",
"e. c #56A938",
"r. c #56BA33",
"t. c #59BC34",
"y. c #56B435",
"u. c #48B02C",
"i. c #31C415",
"p. c #34C418",
"a. c #38C61C",
"s. c #2FC515",
"d. c #42CD1C",
"f. c #43D11E",
"g. c #47C726",
"h. c #49D422",
"j. c #5CD32F",
"k. c #56DD2A",
"l. c #5DDC2E",
"z. c #54D928",
"x. c #5AC532",
"c. c #5CCB32",
"v. c #5BC535",
"b. c #5DD431",
"n. c #5EDB31",
"m. c #56C72F",
"M. c #62C938",
"N. c #60D335",
"B. c #61DB33",
"V. c #60DE2E",
"C. c #5DE32B",
"Z. c #5EE130",
"A. c #60E22D",
"S. c #63E132",
"D. c #6BE33D",
"F. c #598E47",
"G. c #648A57",
"H. c #78A868",
"J. c #699D55",
"K. c #76D353",
"L. c #7AE451",
"P. c #BEA91C",
"I. c #9B853E",
"U. c #B39C26",
"Y. c #CDB028",
"T. c #E1AB18",
"R. c #EACA10",
"E. c #9C8543",
"W. c #B5934B",
"Q. c #BC8469",
"!. c #B4A067",
"~. c #C68C68",
"^. c #D4996D",
"/. c #E6A56D",
"(. c #F5AF6F",
"). c #F2AF70",
"_. c #F3B477",
"`. c #D9A172",
"'. c #83E75C",
"]. c #94E973",
"[. c #593D8E",
"{. c #563A81",
"}. c #5B3D91",
"|. c #5D4982",
" X c #5F5182",
".X c #685088",
"XX c #7A6883",
"oX c #7A7387",
"OX c #85758A",
"+X c #8C7C92",
"@X c #887191",
"#X c #927D93",
"$X c #848983",
"%X c #96899B",
"&X c #94848C",
"*X c #A59796",
"=X c #9AB491",
"-X c #9890A5",
";X c #A698AB",
":X c #B0A9B2",
">X c #EDB885",
",X c #CFB294",
"<X c #99CE85",
"1X c #A9DD94",
"2X c #A7EA8C",
"3X c #B5D9A3",
"4X c #F3C69A",
"5X c #C7F0B5",
"6X c #C8ECBA",
"7X c #F3CBA2",
"8X c #C4BAC6",
"9X c #DAD4DC",
"0X c #DCDBDB",
"qX c #CEC8CE",
"wX c #E1DCE1",
"eX c #E9E8E9",
"rX c #F4F4F4",
"tX c #EFF0EC",
/* pixels */
"                                                                                                                        ",
"                                                                                                                        ",
"                                                ( .. .$X$X$X ._ !                                                       ",
"                                          z ! $X3X6X2X].].].2X1X=X .s                                                   ",
"                                        ! =X6X5X5X5X'.C.C.C.C.A.D.L.1X$Xb                                               ",
"                                    b  .<X2X5X5X5X].A.C.C.C.C.A.A.C.C.'.=X!                                             ",
"                          G Q T I a } K.S.D.'.L.D.A.C.C.C.C.C.C.C.C.C.C.L.<XJ I T T F                                   ",
"                      p 2 c.w.e.N.w.U c.C.C.A.C.C.C.C.C.C.C.C.C.C.C.C.C.j.1 e.N.w.q.M.4.d                               ",
"                    f 5.5.a   b D w.c.4.c.C.C.C.C.C.C.C.C.C.C.C.C.C.C.l.6.v.r.W f   a 3.8.J                             ",
"                  s T I       K K.7.0.c.6.C.C.C.C.C.C.C.C.C.C.C.C.C.C.7.x.t.6.D.H.b     F 5.a                           ",
"                  2 8.a       G.S.l.6.j.m.C.C.C.C.C.C.C.C.C.C.C.C.C.C.0.j.6.j.A.K.K       8.5.                          ",
"                  1 I       J M.C.C.N.l.C.C.C.C.C.C.C.C.C.C.C.C.C.C.C.C.l.N.C.C.S.H.p     F 2                           ",
"                            R S.C.C.C.C.C.C.C.C.C.C.C.C.C.C.C.C.C.C.C.C.C.C.C.C.C.D.K                                   ",
"                          d e.C.C.C.C.C.C.C.C.C.C.C.C.C.C.C.C.C.C.C.C.C.C.C.C.C.C.C.F.                                  ",
"                          G x.C.C.C.C.C.C.C.C.C.C.C.C.C.C.C.C.C.C.C.C.C.C.C.C.C.C.C.t.                                  ",
"                          1 n.C.C.C.C.C.C.C.C.C.C.C.C.C.C.C.C.C.C.C.C.C.C.C.C.C.C.C.B.d                                 ",
"                          3.C.C.C.C.C.Z.A.C.C.C.C.C.C.C.C.C.C.C.C.C.C.A.c.r.x.Z.C.A.A.H                                 ",
"                          7.C.C.b.U { { E 2 v.C.C.C.C.C.C.C.C.C.C.l.3.E oX+XOXY t.A.C.L                                 ",
"                          q.C.n.2 ;X;X;X;X;XK 8.Z.A.C.C.C.C.C.C.x.I %X;X+XXXOX+XF.A.C.Y                                 ",
"                          q.C.t.K f 7 7 h ! +X .5.C.C.C.C.C.C.b.W +X_ 7 5 5 5 s G n.C.Y                                 ",
"                          7.C.y.# o o o 5 5 6 XX_ r.C.C.C.C.C.8.XX( 5 5 5 5 5 o % n.C.G                                 ",
"                          2 n.t.# 5 5 o o o o 6 ' Y S.C.C.C.x.E f o 5 o o o o O & V.B.u   j %.*.`.~.)                   ",
"                          G x.j., X 5 5 5 o o 5 o ! x.C.C.C.4.J 5 5 5 5 5 5 X . 2 C.r.k &.>X4X7X4X_.=.                  ",
"                          a 8.C.q.. X O o 5 o 5 o 7 q.C.C.C.1 7 o o o 5 o O X % t.C.2 ,X4X4X4X>X_.).~.                  ",
"                            F l.C.% . X X o o 5 o X 6.Z.n.n.1 X X o o X X X . w.Z.N.P >X_._._.(.).^.Q.                  ",
"                            f q.C.x.@ X X X X X . X w.x.7.j.4.+ X X X X X . 3.Z.l.1 ~.(.).)./.^.~.*.@.                  ",
"                              D e.C.n.2 @ . . . X & C.b.x.n.b.2 + . . + , t.A.l.3.$./.#.P @.=.%.)                       ",
"                                G x.C.n.r.4.1 1 4.x.r.3.3.4.l.j.q.4.6.w.b.C.k.9.P ~.=.2 t.F (                           ",
"                                  G u.z.C.C.C.C.C.C.c.b.Z.j.n.C.C.C.C.C.k.h.: u P ) g c.l.F                             ",
"                                    V >.h.C.C.A.C.C.C.C.C.C.C.C.C.A.C.h.a.: d 1 6.H F B.q.H                             ",
"                            b { G.} b s % > :.4.T q.C.C.C.C.C.7.3.9.:.; D     7.C.M.:.1 4.T s                           ",
"                        f G.F.F.e.L.G.B g b  X X|.Z f.f.h.f.g.C |. X Xv       G x.k.<.* 0.w.D I H                       ",
"                        1 S.C.b.9.j.0.P Q.j {.[.[.H p.s.i.i.<.H }.[.M N         > p.s.:.= ; y.B.U                       ",
"                      p % m.C.C.9.>.= P @.h 0 n {.q >.<.2.;.; d M n i         p % -.i.p.-.-.g.4.a                       ",
"                &.%.! ` ` H & & % : 9.8 9 t ~ e 0 i 8X:X:X:X#Xz 0 e ~ 0       9 8 >.i.i.-.* d                           ",
"                $.^.OX-XoX..L & % 1 8 t S S A e |.M | OX&XOX( |.M r S ^ e b l m r 8 : = @                               ",
"                @.`.] ! 8 % V q q 9 m ^ ^ S m n .Xn 9XtXeXtX%X{..Xx ~ S ^ 9 r t e e 9 0 z                               ",
"                ) Q.%.  0 e r A S e ~ S S t y n }.n 9XrXrXrX%X{.[.x ~ r S 0 A S A e 9 0                                 ",
"                  j     i t y S S e y A y r A l [.n 9XrXrXrX%XM {.i A e r 9 t ~ ~ y t i                                 ",
"                          9 t A y t t r 9 ~ S w M N 9XrXrXrX%XM n w ^ t e t t t t t 9                                   ",
"                          i 9 r r r e i 0 ^ S r N z 9XrXrXrX%Xn x t ^ A 9 r t t r e i                                   ",
"                              z z z z   v A ~ y l z 9XrXrXrX%Xv w ~ m ^ 0 0 9 9 0 z                                     ",
"                                        c c n r 0 z 9XrXrXrX-Xv w r n y c                                               ",
"                                        r n n y e s 9XrXrXrX;Xv r A n c c                                               ",
"                                      i e n c A r ! qXtXrXeX:Xb t ^ c n l                                               ",
"                                      z e r ^ S t ` 8XwXrX9X8X! t A ~ e w                                               ",
"                                        l e t t r ' 8XqX9XqX8X_ r t t e l                                               ",
"                                          D : ; = 1 W } } } W 1 = ; = h                                                 ",
"                                          D d.p.p.,.,.,.<.,.,.<.p.a.1.p                                                 ",
"                                          d B.k.z.0.>.- @ ; u.g.k.C.7.                                                  ",
"                                          s c.C.C.A.h.:.@ ,.C.C.C.A.3.                                                  ",
"                                            3.r.N.S.z.:.@ 1.C.A.v.r.G                                                   ",
"                                          P #.E.O.8.h.: # >.b.5.o.I.#.h                                                 ",
"                                        #X;X*X#.Y.U.3 , $ 3 4 P.U.&.*X;X@X                                              ",
"                                      ;XtXrXrXqXY.R.X.o.< +.W.R.!.eXrXrXwX.X                                            ",
"                                      -X0XeXeX0X!.T.#.o.< +.W.T.,X0XeXeXqX`                                             ",
"                                      p ! OX+X&X#X&.OX_ b ] &X&X%X%X%XOX(                                               ",
"                                          ` ` ' ' XX'     ( ' | | ' ` `                                                 ",
"                                                                                                                        ",
"                                                                                                                        "
};
