/* XPM */
static char *_43690f719e04471a77bdb45ad07c4f5bGSvotLGgRn08dCR[] = {
/* columns rows colors chars-per-pixel */
"60 60 256 2 ",
"   c None",
".  c #021E36",
"X  c #0A3032",
"o  c #20523B",
"O  c #4A7C14",
"+  c #022D49",
"@  c #01324B",
"#  c #043444",
"$  c #032D54",
"%  c #013C5B",
"&  c #013654",
"*  c #173142",
"=  c #033D67",
"-  c #223847",
";  c #104953",
":  c #014364",
">  c #02496C",
",  c #024B75",
"<  c #01537B",
"1  c #065577",
"2  c #0F526D",
"3  c #295175",
"4  c #196E76",
"5  c #2C7B75",
"6  c #2E524E",
"7  c #447553",
"8  c #517878",
"9  c #50861A",
"0  c #56882B",
"q  c #67992B",
"w  c #6DB52D",
"e  c #69B92A",
"r  c #72B42D",
"t  c #77B92C",
"y  c #6DB433",
"u  c #6AB43A",
"i  c #72B333",
"p  c #77B737",
"a  c #71AA3A",
"s  c #4FA33F",
"d  c #79C230",
"f  c #348B5B",
"g  c #328F70",
"h  c #188376",
"j  c #538F51",
"k  c #6A9654",
"l  c #59AA4A",
"z  c #57AA57",
"x  c #4BA75A",
"c  c #66A947",
"v  c #76A947",
"b  c #6BB549",
"n  c #76B74A",
"m  c #7AA759",
"M  c #75BA58",
"N  c #6BB257",
"B  c #4F936C",
"V  c #6A916D",
"C  c #5AAA64",
"Z  c #48A46A",
"A  c #7BA469",
"S  c #76BB67",
"D  c #69B870",
"F  c #79C452",
"G  c #85BA3A",
"H  c #8DCC3D",
"J  c #8AC538",
"K  c #95CC34",
"L  c #94CA3B",
"P  c #99C93B",
"I  c #95C73B",
"U  c #91CA2F",
"Y  c #86BA50",
"T  c #88B36E",
"R  c #8DCA43",
"E  c #89C748",
"W  c #94CA43",
"Q  c #99C845",
"!  c #8AC554",
"~  c #98CD56",
"^  c #A7CE59",
"/  c #A6D35A",
"(  c #A7CA49",
")  c #92C86E",
"_  c #AAD579",
"`  c #B5D979",
"'  c #A6D26B",
"]  c #B5E270",
"[  c #015A85",
"{  c #035B87",
"}  c #055B94",
"|  c #10518C",
" . c #375D8D",
".. c #02648D",
"X. c #016B9C",
"o. c #036797",
"O. c #04729B",
"+. c #137391",
"@. c #2F6F94",
"#. c #046AA5",
"$. c #0172A4",
"%. c #027CAC",
"&. c #0576AA",
"*. c #027BB4",
"=. c #0679B8",
"-. c #1170AD",
";. c #3671AF",
":. c #4A7096",
">. c #717C90",
",. c #4E73A7",
"<. c #6C7FB0",
"1. c #405F87",
"2. c #057AC8",
"3. c #027EE0",
"4. c #19858E",
"5. c #2B949C",
"6. c #379899",
"7. c #2A8F8C",
"8. c #39A890",
"9. c #0984AA",
"0. c #1A8AAC",
"q. c #0283BB",
"w. c #0586B7",
"e. c #1688B8",
"r. c #0393BA",
"t. c #1993B0",
"y. c #2C90B3",
"u. c #2CA1AB",
"i. c #49948E",
"p. c #759789",
"a. c #7D8895",
"s. c #668696",
"d. c #51A78A",
"f. c #71B393",
"g. c #5293B3",
"h. c #7798B9",
"j. c #728EAD",
"k. c #46A7AF",
"l. c #6AB4A7",
"z. c #73B0B1",
"x. c #028CC2",
"c. c #0588C9",
"v. c #1688C4",
"b. c #0294C4",
"n. c #0394CC",
"m. c #019CCD",
"M. c #0799C7",
"N. c #058AD7",
"B. c #0395D5",
"V. c #029CD5",
"C. c #0395DC",
"Z. c #019BDC",
"A. c #0C96D6",
"S. c #169CDA",
"D. c #1492CF",
"F. c #2B9AC9",
"G. c #289ED5",
"H. c #3098D0",
"J. c #01A2DC",
"K. c #02A5D7",
"L. c #1AA8D5",
"P. c #10A5CC",
"I. c #27A5DB",
"U. c #36A6DA",
"Y. c #36A7D0",
"T. c #0495E3",
"R. c #019BE2",
"E. c #0696E8",
"W. c #0790E6",
"Q. c #02A3E3",
"!. c #02A7E7",
"~. c #19A6E5",
"^. c #1BB0E0",
"/. c #27A6E2",
"(. c #37B9E7",
"). c #39AEE9",
"_. c #4D92C3",
"`. c #7792C6",
"'. c #46AAD7",
"]. c #4AB4DB",
"[. c #57B5D5",
"{. c #72AFCD",
"}. c #47B9E9",
"|. c #58B9E7",
" X c #4BB0E8",
".X c #66BDE8",
"XX c #6EB8EA",
"oX c #78C5DD",
"OX c #52C3EC",
"+X c #6AC4E6",
"@X c #78C6E8",
"#X c #69C8F2",
"$X c #4DC4DD",
"%X c #75C095",
"&X c #838A98",
"*X c #85929F",
"=X c #8DAC8E",
"-X c #8B96AD",
";X c #93B1B2",
":X c #A4B0B6",
">X c #A5BA98",
",X c #8BC690",
"<X c #B8D988",
"1X c #B5D696",
"2X c #AACE91",
"3X c #BAD9A7",
"4X c #AFD0B5",
"5X c #BAE29C",
"6X c #C4DB96",
"7X c #C6DDAE",
"8X c #C7E1A6",
"9X c #CBE3B8",
"0X c #D4E7B8",
"qX c #8EAFCC",
"wX c #A7BBC7",
"eX c #B1BDCE",
"rX c #8A98C5",
"tX c #91C6D5",
"yX c #B7C4C9",
"uX c #A5C8DC",
"iX c #B3D0D6",
"pX c #87CBEA",
"aX c #97D2EB",
"sX c #92CCEF",
"dX c #A6D6EB",
"fX c #B8DAE8",
"gX c #B7DBF0",
"hX c #BEE1EA",
"jX c #CAD4D6",
"kX c #D7E7C6",
"lX c #D9E8D8",
"zX c #C9E4D6",
"xX c #E3ECD8",
"cX c #E5F1DA",
"vX c #C9DBE7",
"bX c #D4DDE2",
"nX c #CBE4EB",
"mX c #D4E5EC",
"MX c #D3E9EE",
"NX c #DBEAED",
"BX c #DAE6E7",
"VX c #CCE7F3",
"CX c #D4E6F3",
"ZX c #D8E9F3",
"AX c #DAF1F2",
"SX c #E3EBEC",
"DX c #EAEDE8",
"FX c #EAF2E9",
"GX c #F3F1ED",
"HX c #F1F2E6",
"JX c #E4EDF2",
"KX c #EBEEF2",
"LX c #EDF3F3",
"PX c #E3F1F3",
"IX c #F2F3F3",
"UX c #F4EFEE",
/* pixels */
"                                                                                                                        ",
"                                                                                                                        ",
"                                                                                                                        ",
"                                                                                                                        ",
"                                                                rXrX                                                    ",
"                                                  -X&X>.&Xa.j.j.j.g.,.,.,.,.j.rX                                        ",
"                                            &X>.*X:XjXlXBXfXdXdXaXpXpX@XXX{._.;. .,.j.                                  ",
"                                        >.>.-XbXJXcXlXzXiXdXsXsXpX@X@X+X.X.X[.[.'.;.| ;.`.                              ",
"                                    -Xa.yXDXFXDXlXvXfXdXaXpXpX@X@X.X.X|.|.|.|. X'.'.G.v.} @.qX                          ",
"                                  a.:XBXGXHXDXBXjXdXaXsX@X@X@XXX.X|.|.|.].].].'.'.'.Y.H.v.-.| <.                        ",
"                              -X&XjXIXIXcXxXlXzXiXsXpX@X@X+X.X|.|.|.].}. X'.U.U.U.U.Y.H.G.e.-.5 k                       ",
"                            &X&XBXLXGXDXkXkX0X9X4XtX{.XX.X.XOX$XOX}.}.(.).).U.U.U.U.G.G.G.D.O.x v V :X                  ",
"                          -X:XKXLXFXxXkX0X7X8X8X5X<X4Xz.[. X X]. X'.Y.Y.U./.U.U.I.I.I.S.P.M.-.g u v c =X                ",
"                        &X-XKXLXFXxXkX9X7X7X1X<X<X<X1X2X,Xl.l.l.l.l.%Xf.k.G.I.I.I.I.S.A.n.b.w.4.l y E m >X              ",
"                      *X;XSXLXFXxXkX9X7X3X1X1X<X<X<X_ ' ' _ _ _ ' / / / l.H./.I.S.A.B.V.V.n.x.w.h l G J m               ",
"                      a.SXLXFXxXkX9X3X3X1X<X<X<X_ ' ~ ~ Y E ~ ^ ^ ^ ^ ^ f.F.~.S.B.V.V.V.m.b.n.w.$.f i t Y T             ",
"                    a.bXIXFXxXkX9X3X3X1X<X<X` ` ' ) ) n p E L K Q / ^ / d.G.T.C.V.Z.V.V.V.n.9.g +.+.x b i v =X      yXjX",
"                  ;X:XGXFXxXkX9X3X1X2X2X<X<X` ` ) ) Y G R W W L L ( ( ) 5.S.C.C.V.Z.V.V.V.b.g E B $.4 f j j p.:XwXyXBXGX",
"                  *XDXDXBXlX9X8X3X1X<X<X] ] _ _ / ^ P Q E E M S F F D u.n.Z.C.C.B.Z.V.V.V.x.C Q M +.#.| h.vXKXIXIXIXLXLX",
"                -XyXFXcX0X9X8X8X6X6X6X<X` _ _ ' / W S d.6.5.0.e.e.t.e.N.T.Z.Z.C.B.Z.V.V.m.r.n Q ! 7.#. .mXGXGXIXIXKXJXNX",
"                h.NXBXlX0X8X9X6X] _ ,X,Xz.z.l.) W S e.N.C.T.C.Z.J.J.Z.R.Z.C.Z.Z.V.Z.J.V.V.r.N L Y 5 @.uXLXUXIXKXCXCXZXCX",
"              -XiXAXnXzX9X8X6X<X) d.u.D.W.N.v.i.! d.N.Z.K.E.E.!.!.!.!.!.J.V.Z.Z.Z.J.J.V.V.n.7.B 5 @.iXLXIXIXLXAXVXCXCXVX",
"              j.JXCXfXuX4X4X` ) 7.N.C.E.T.V.T.e.k.v.T.R.V.E.R.K.Q.!.Q.K.Q.Q.Q.Q.Q.J.J.V.m.c.2.#.+.qXGXGXIXIXLXPXmXMXnXwX",
"            qX-XAXgXdXaXtX{.T ! 0.3.N.T.Z.Z.R.T.N.N.R.R.Z.T.R.Q.!.!.Q.K.Q.!.K.J.Q.Q.Z.Z.V.N.=.-.h.NXGXIXIXIXIXJXMXnXwX:X",
"            -XeXVXdXaXpX#X].C ! 7.2.3.e.e.N.Z.Z.T.R.R.R.R.R.R.Q.!.!.!.Q.Q.Q.Q.Q.R.J.K.M.y.g.qXvXLXLXLXLXLXIXLXZXnXp.>X  ",
"            j.vXgXaXpX@X#XI.x L D 5.e.C D t.Z.Z.Z.R.R.R.R.R.R.R.R.Q.Q.!.!.Q.Q.!.Q.P.u.{.vXSXLXLXIXLXLXSXSXJXZXmX=Xk )   ",
"            `.PXdXsX@X+XOX~.g R ! 6.9.x D t.Z.E.R.R.R.R.R.R.R.R.R.R.R.R.Z.Z.Z.R.M.k.mXIXLXLXIXIXIXKXBXZXZXCXVX;X7 7 A   ",
"            `.AXaXpX#X+XOX~.0.M S e.W.t.t.V.A.E.R.R.R.R.R.R.R.R.R.R.R.R.R.Z.V.B.y.fXGXDXSXKXKXJXAXCXnXnXCXCXqX3 # X 7   ",
"          qXqXCXpX@X#X+XOX(.v.Z d.c.E.V.Z.E.N.N.T.C.T.T.R.R.R.R.R.R.R.Q.!.!.J.V._.ZXSXVXdXtXtXtX{.y.@.@.i.:.1 > $ . 6   ",
"          -XqXVX@X@X#XOX}.}.U.k.6.N.T.V.C.c.0.5.e.c.C.T.R.R.R.R.R.Z.Q.!.Q.Q.Q.Z.F.aXuXg.e.e.0.9.9.9.%.$.o.{ < : + . -   ",
"          j.tXgX@X+XOXOX}.(.).Y.k.F.W.A.5.D E W M i.c.T.Z.Z.R.R.R.R.Q.Q.Q.Q.Q.K.V.A.D.n.B.n.w.*.*.%.$.4 5 2 > % * . *   ",
"          s.tXgXoX+X|.|.].k.U.Y.8.8.e.6.M d p E Q R 8.c.T.T.V.Z.R.Z.Q.Q.Q.J.J.K.Q.T.n.M.m.r.&.7.g 4 4 l F B ; 6 k o X   ",
"          {.oXfXqXfXhXhXnXBXfX{.i.S N n r r y i J Q F 5.W.E.Z.Z.R.Z.R.Q.J.J.K.J.R.Z.m.m.V.w.g b w u c u t E Y W L 0 k >X",
"    j.>.a.h.h.yXMXLXIXIXLXDXmXz.M Y p y y y i r p L W D b.R.R.T.R.Z.Z.Q.J.J.J.J.J.K.V.C.N.%.Z u i r y y r t J L R 9 v 2X",
"  -X;XMXbXjXSXGXIXIXLXJXNXfX;XN n n i w u y i i e d P E 7.N.C.C.Z.Z.Z.Q.J.J.J.Z.m.m.n.w.4.f w r r i y y y r i J E 9 m   ",
"yX>.vXLXGXGXIXGXLXPXZXCXfXg.i.S Y n w i i r y y y J Q W S 6.w.B.C.C.Z.Q.J.J.J.Z.V.B.q.4.l y i i u u t p w y i J E 9 A   ",
"a.jXLXIXGXIXLXJXAXMXZXMX{.H.F.7.b p y i i e e y p R E W W T ;Xk.5.e.V.R.J.K.K.V.n.N.=.g p Y J G p J L J w w r J G O T   ",
"JXIXIXIXIXJXNXBXVXVXnXuXy.U./.y.z r i y y u c k V V p.p.=X4XDX3XS D 7.A.R.K.V.B.x.c.=.g E H H H L L Q J y y t I a 9 T   ",
"IXGXIXLXNXVXMXZXuXg.g.y.Y.~.~.5.l i r a j s.j.;XiXBXFXKXKXLXJX3XW P E 8.A.T.V.N.x.x.q.+.g f f x R K Q G i i G L q 0 2X  ",
"IXLXLXAXMXVXCXVXg.'.U.U.I./.y.Z u w w j wXSXFXFXJXLXIXIXLXSXmX2XQ Q W C M.R.n.N.x.w.q.&.#.#.} | j R W G i p L L 9 k     ",
"AXAXCXCXCXCXCXuX'.(./././.F.B n i e V yXLXGXDXNXZXZXNXBXMXnX,X! K U S 5.m.V.n.c.x.q.=.2.*.$.X.} 2 j E J J H K I O A     ",
"vXnXCXCXCXCXvXj.].(./.I.I.I.5.z i c :XFXLXLXSXMXCXCXCXCXiX=X! H K W 8.b.m.M.b.x.x.=.*.*.&.#.#.{ | ; c L H L K G 0 =X    ",
"  yXjXnXnXiX:XuXy.(.I./.I.L.L.7.A 4XSXKXJXBXMXVXnXzXiX;Xm I P Q P M e.m.T.n.b.w.q.=.*.$.O.X...< | : j W L L I q k 4X    ",
"    yXeXwXwX    _.I./.I.I.L.~.y.zXFXMXMXCXCXiX;Xp.V m Y W L P K R B n.m.C.b.x.q.*.*.&.$.X.o.{ < | ; c R K K G 0 T       ",
"                  y.^.I.^.~.G.qXJXZXVXVXvX;Xj a r J L L H H W I n 4.b.n.b.x.q.q.*.&.$.X.o...[ > : j R L L K q j         ",
"                  z.P./.L.L.Y.dXmXnXiX;XA c u w J K P W L L K P Z 9.b.n.r.x.q.q.&.&.#.o...[ , : ; b L P L J 0 p.        ",
"                    y.S.L.L.P.y.i.m m Y ! p w y E L W Q P P Q ! 4.r.c.x.w.q.q.%.$.#.o...[ 1 > % ; v P P L a V           ",
"                    {.e.S.L.P.B.h E K L W p w r J W W L K P ! Z 9.x.x.q.w.q.%.$.X.o.} [ < > : & X j W L G j ;X          ",
"                      h.v.b.A.N.9.C L P L J t t I W L K L M h 9.w.w.w.q.9.*.&.O.o.} [ < , : % # + 7 H J j p.            ",
"                        g.=.c.c.q.4.n W L L J I P L L U E g =.2.*.9.w.%.$.$.O.o...[ < , > % $ + X j H v V               ",
"                          g.=.c.q.w.@.z H L Q P U K Q K z O.=.%.%.%.%.$.O.O.....[ < > : % @ + $ o n n V                 ",
"                            g.-.q.q.=.+.c L Q L U K W E h #.&.$.$.$.$.O.o...[ [ < > : % & @ + + j n V 4X                ",
"                              z.-.=.*.*.+.x H W L L E B o.$.#.X.X.o.....[ [ < , : % & @ @ $ # o j V                     ",
"                                h.@.&.%.&.+.z H P L b 4 X.X.#.o...} { [ < , > : % & @ @ @ # 6 7 p.                      ",
"                                    ,.| X.#...j E R l 1 ..o.} { [ < < , > : % & @ @ @ @ # ; 8 ;X                        ",
"                                      h.@.} o.1 f n M 4 [ { [ < < , > : : % & @ @ @ + + ; s.                            ",
"                                          qX:.| | 2 f f > < , > > : % & & @ @ @ $ $ 3 h.                                ",
"                                              qXg. .2 2 , = : % % & & $ + @ & 3 :.h.                                    ",
"                                                      `.j.,.:.1. . . .:.j.j.qX                                          ",
"                                                                                                                        "
};
