/* XPM */
static char *_5627525ed6144d2c9a78e6e392b76c6ATHEJRdhG6GwLTM2[] = {
/* columns rows colors chars-per-pixel */
"60 60 177 2 ",
"   c None",
".  c #210E2C",
"X  c #24132F",
"o  c #250F31",
"O  c #261132",
"+  c #291335",
"@  c #2E163B",
"#  c #2D1B36",
"$  c #31193E",
"%  c #30153C",
"&  c #35233F",
"*  c #351943",
"=  c #391C45",
"-  c #3B1F48",
";  c #3B2247",
":  c #3D244B",
">  c #33294F",
",  c #3F294E",
"<  c #35254D",
"1  c #392C52",
"2  c #362B52",
"3  c #363456",
"4  c #373659",
"5  c #3A365A",
"6  c #37395D",
"7  c #3E3E61",
"8  c #353F64",
"9  c #40274C",
"0  c #432F4F",
"q  c #442C52",
"w  c #492D56",
"e  c #443155",
"r  c #4A3356",
"t  c #473A55",
"y  c #4E3759",
"u  c #43395E",
"i  c #4C3B5B",
"p  c #533C5D",
"a  c #553E60",
"s  c #3C4465",
"d  c #3C4A66",
"f  c #3D4E6D",
"g  c #3E5575",
"h  c #3E5D79",
"j  c #55405F",
"k  c #444464",
"l  c #434967",
"z  c #41456A",
"x  c #424C6B",
"c  c #4B496A",
"v  c #494262",
"b  c #564263",
"n  c #5A4565",
"m  c #5C4A66",
"M  c #5D4568",
"N  c #544C69",
"B  c #5E4C69",
"V  c #4B536E",
"C  c #54526F",
"Z  c #5C506C",
"A  c #445473",
"S  c #445B75",
"D  c #435D7A",
"F  c #4D5D7B",
"G  c #535571",
"H  c #5C5371",
"J  c #5C5973",
"K  c #5A5F78",
"L  c #565A76",
"P  c #624D6C",
"I  c #64526D",
"U  c #69576F",
"Y  c #665372",
"T  c #695573",
"R  c #645A73",
"E  c #6D5C75",
"W  c #635D7C",
"Q  c #6F5C79",
"!  c #715E77",
"~  c #715E7A",
"^  c #46617D",
"/  c #4A637E",
"(  c #6E6275",
")  c #62647B",
"_  c #6D637C",
"`  c #726377",
"'  c #74647D",
"]  c #786B7E",
"[  c #7D707F",
"{  c #3977AA",
"}  c #2777B1",
"|  c #486680",
" . c #446982",
".. c #4A6883",
"X. c #546182",
"o. c #4A728B",
"O. c #756580",
"+. c #796681",
"@. c #746B83",
"#. c #7C6D84",
"$. c #7F6E88",
"%. c #6F7185",
"&. c #7E7185",
"*. c #757188",
"=. c #7E738A",
"-. c #7D788A",
";. c #807287",
":. c #83748B",
">. c #88768F",
",. c #857B8E",
"<. c #897C8E",
"1. c #897791",
"2. c #857B92",
"3. c #8B7D92",
"4. c #78849F",
"5. c #5B91AA",
"6. c #8D8295",
"7. c #87819B",
"8. c #918297",
"9. c #93859B",
"0. c #958A9B",
"q. c #998C9E",
"w. c #948A95",
"e. c #9C8EA2",
"r. c #9D92A3",
"t. c #9F98A5",
"y. c #A08FA7",
"u. c #A195A6",
"i. c #A29DA5",
"p. c #A497AA",
"a. c #A59BAB",
"s. c #A99EAE",
"d. c #A99BB0",
"f. c #A8A2AE",
"g. c #ABACAB",
"h. c #ACA3B1",
"j. c #B1A6B6",
"k. c #B2A9B6",
"l. c #B5ACBA",
"z. c #BAAFBC",
"x. c #B7B0BC",
"c. c #B9B2BE",
"v. c #BEB9BF",
"b. c #BDB4C1",
"n. c #BFB8C3",
"m. c #C1B7C4",
"M. c #C3BCC5",
"N. c #C5BEC9",
"B. c #C8BFCB",
"V. c #C6C3C9",
"C. c #C9C3CC",
"Z. c #CFCACF",
"A. c #CEC7D0",
"S. c #CEC9D2",
"D. c #D2CDD5",
"F. c #D4D2D6",
"G. c #D6D3D9",
"H. c #DAD6DB",
"J. c #DEDADE",
"K. c #DDDADE",
"L. c #DDDDE0",
"P. c #E1DDE2",
"I. c #E7E6E5",
"U. c #E4E2E5",
"Y. c #E8E6E7",
"T. c #E7E4E8",
"R. c #E9E6E9",
"E. c #EDEBED",
"W. c #E8E9E5",
"Q. c #EFEFF0",
"!. c #EFEDF0",
"~. c #F1EFF1",
"^. c #EFF2F2",
"/. c #F3F3F3",
"(. c #F2F2F1",
"). c #F4F5F5",
"_. c #F4F4F4",
/* pixels */
"                                                                                                                        ",
"                                                                                                                        ",
"                                                                                                                        ",
"                                                                                                                        ",
"                                                          D S D S                                                       ",
"                                                    6 N ,.l.m.q.` , 2 8 5.                                              ",
"                                                k @.V.Y.n.#.+.8.r.u.u.r.+.x                                             ",
"                                            ^ _ G.Q.k.' 0.0.I , = * * ; b ! i  .                                        ",
"                                          D 0.(.I.<.8.$.q * - p n P M p : * - = g                                       ",
"                                         .#.(.I.' q.P * * p 1.6.8.0.0.0.0.Q , * = D                                     ",
"                                        R U.E.:.q.I * * * q q q r a T $.3.0.:.b - 3                                     ",
"                                      L D._.r.q.n * * * * * * * * * * - q Q 8.8.I = x                                   ",
"                                      q.(.J.#.Q * * * * * * * * * * * * * * p 3.9.a 1                                   ",
"                                    F V._.r.p.; * * * * * * * * * * * * * * * n 8.+.= s                                 ",
"                                    W Y./.` :.* = q ; * * * * * * * * * * * * = +.8.e 1                                 ",
"                                    _ C.c.6.r - #.0.;.: * * * * * * * * * * * * b 0.M *                                 ",
"                                  ^ b 3.` I % r 0.0.8.r * * * * * * * * * * * * q 3.Y *                                 ",
"                                  7 P 3.V.0.$ : 8.0.3.q * * * * * * * * * * * * , :.I *                                 ",
"                                d 6.J.l.I G.E O p ' b * * * * * * * * * * * * * - ;.p *                                 ",
"                                J G._.(.k.2.v.+ & n = * * * * * * * * * * * * * - ~ : *                                 ",
"                                ' U._._.(.I P.@ t &.; * * * * * * * * * * * * * - w * >                                 ",
"                                H C.(._.Q.I m.@ X # @ * * * * * * * * * * * * * * * * s                                 ",
"                                f e.C.D.B.M h.@ . . . + * * * * * * * * * * * * * * < D                                 ",
"                                  C l.m.6.' Q q o . . . . @ * * * * * * * * * * * * s                                   ",
"                                  ..v P , +.q 0.= o . . . . o @ $ * * * * * * * $ <                                     ",
"                                      z z M p.E >.: o . . . . . . o O O O O O + $ x                                     ",
"                                      S L b 8.e.T :.y + . . . . . . . . . X @ * 7                                       ",
"                                    x r.D.r.y #.u.O.#.' p $ O O O O O + 9 y e f                                         ",
"                                    Z ,.8.I 9.~ P 0.O.~ 2.:.T p y p P +.#.N A                                           ",
"                                  K m.' r.E.P.N.j.' B ~ T n B P T Y j p p o.                                            ",
"                                  N E D./._._.E.D.N.m.u.2.` Y T ~ >.s.m.0.x                                             ",
"                                A Z P._._._._._._.E.J.A.B.M.M.M.B.Z.K.E.,.2.                                            ",
"                                J M./._._._._._._._.(.E.R.U.U.U.R.E.(.(.] V.x                                           ",
"                              x 2.F._._._._._._._._._.(.Y.F.D.C.N.n.l.h.B U.Z                                           ",
"                            ^ a.n.3.x.(._.).(./._._._.m.;.P 9.a.h.k.9.h.8.' ;.f                                         ",
"                            G Q._.R.:.C.R.S.e.V._._._.6.M.#.(.^./._.m.G.T.0 F.6.^                                       ",
"                          o.f._._._.J.#.k.' B +.;.=.#.Y 3.+.2.X.4.I.N.F.Q.Y ' W.-.D                                     ",
"                          V E._._._.E.9.; C.(.).(.(.(.J.' +.z } { m.i.R.(.B ( ).(.n.R s                                 ",
"                        / ,._._._._.G.Y : ' r.j.l.h.0.~ ' ~ 9.W 7.x.M.P.F.B P._._._.C.m N                               ",
"                        G x._._._.(.h.9 0.p #.T I E :.+.1.' b.B.B.a.u.z.h.&._._./.(.(.a.0.d                             ",
"                        ) K._._._.(.:.O.m.P N.D.H.P.J.r.m n p P Y E Q ' p u.Y.Y.c.3.J.:.V.V                             ",
"                        @.E._._._._.c.' n.T c.J._._.I.M.l.s.r.6.#.+.a.A.b ' c.k.:.U 3.&.H.x                             ",
"                        *./._._._.(.M.~ k.0.3.V.E._._._._._._._.P.2.B I x   C =.e.:.9.z._                               ",
"                        ' (._._._.R.<.B :.y.m B.D.(._._._._._.R.0.0.A.8.s     D c +.3.W A                               ",
"                        K D./._._.R.3.      5 3.N.D.E._._._._.:.f./._.(.q.h                                             ",
"                        | N r.B.A.n.O.      4 P =.n.V.J.E.).A.9.E._._._.(.H                                             ",
"                            g f l 4       d ' u.r.I 8.n.B.D.;.U._._._._._.l.g                                           ",
"                                        l q.L.,.u.x.:.O.9.b.E T./._._._._.L.l   / ..                                    ",
"                                      &.c.(._.R.h.,.c.b.3.Y O.C.R._._._._.E.t -.r.' 7                                   ",
"                                      v.(._._._._.L.a.#.' M a m.D.(._._._.c.p.V.' ] R l                                 ",
"                                      D._._._._._._.I.N.c.n S e.V.R._._./.6.J.p w.g.i.B                                 ",
"                                    ) F._._._._.~.J.V.d.Y  .  H l.H._._.E.Z.#.` E ! I e                                 ",
"                                    A V._.G.r.h.j.p._ A       x 2.C.E._./.l.( g.g.g.-.d                                 ",
"                                      0.(._.E.c.t.2.F           G z.F.(.A.r E ] [ ( k                                   ",
"                                      K J._._._._.^.%.          o.2.M.c.p #.3.,.Q u                                     ",
"                                      ^ ' G.E.(.E.I.-.            c I b j U I m v                                       ",
"                                        g H r.l.h.2.c               u N b e 5                                           ",
"                                            A c x                                                                       ",
"                                                                                                                        ",
"                                                                                                                        "
};
