/* XPM */
static char *_768d319e0c54384d05d6586898fdfb1vIxhGAVtRpaknOPo[] = {
/* columns rows colors chars-per-pixel */
"60 60 178 2 ",
"   c None",
".  c #210E2C",
"X  c #24132F",
"o  c #250F31",
"O  c #261132",
"+  c #291335",
"@  c #2E163B",
"#  c #2D1B36",
"$  c #31193E",
"%  c #30153C",
"&  c #35233F",
"*  c #351943",
"=  c #391C45",
"-  c #3B1F48",
";  c #3B2247",
":  c #3D244B",
">  c #3F294E",
",  c #34274E",
"<  c #392C52",
"1  c #362B52",
"2  c #363456",
"3  c #373659",
"4  c #3A365A",
"5  c #37395D",
"6  c #3E3E61",
"7  c #353F64",
"8  c #40274C",
"9  c #432F4F",
"0  c #442C52",
"q  c #492D56",
"w  c #443155",
"e  c #4A3356",
"r  c #473A55",
"t  c #4E3759",
"y  c #43395E",
"u  c #4C3B5B",
"i  c #533C5D",
"p  c #553E60",
"a  c #3C4465",
"s  c #3C4A66",
"d  c #3D4E6D",
"f  c #3E5575",
"g  c #3E5D79",
"h  c #55405F",
"j  c #444464",
"k  c #434967",
"l  c #41456A",
"z  c #424C6B",
"x  c #4B496A",
"c  c #494262",
"v  c #564263",
"b  c #5A4565",
"n  c #5C4A66",
"m  c #5D4568",
"M  c #544C69",
"N  c #5E4C69",
"B  c #4B536E",
"V  c #54526F",
"C  c #5C506C",
"Z  c #445473",
"A  c #445B75",
"S  c #435D7A",
"D  c #4D5D7B",
"F  c #535571",
"G  c #5C5371",
"H  c #5C5973",
"J  c #5A5F78",
"K  c #565A76",
"L  c #624D6C",
"P  c #64526D",
"I  c #69576F",
"U  c #665372",
"Y  c #695573",
"T  c #645A73",
"R  c #6D5C75",
"E  c #635D7C",
"W  c #6F5C79",
"Q  c #715E77",
"!  c #715E7A",
"~  c #46617D",
"^  c #4A637E",
"/  c #6E6275",
"(  c #62647B",
")  c #6D637C",
"_  c #726377",
"`  c #74647D",
"'  c #786B7E",
"]  c #7D707F",
"[  c #3977AA",
"{  c #2777B1",
"}  c #486680",
"|  c #446982",
" . c #4A6883",
".. c #546182",
"X. c #4A728B",
"o. c #756580",
"O. c #796681",
"+. c #746B83",
"@. c #7C6D84",
"#. c #7F6E88",
"$. c #6F7185",
"%. c #7E7185",
"&. c #757188",
"*. c #7E738A",
"=. c #7D788A",
"-. c #807287",
";. c #83748B",
":. c #88768F",
">. c #857B8E",
",. c #897C8E",
"<. c #897791",
"1. c #857B92",
"2. c #8B7D92",
"3. c #78849F",
"4. c #5B91AA",
"5. c #8D8295",
"6. c #87819B",
"7. c #918297",
"8. c #93859B",
"9. c #958A9B",
"0. c #998C9E",
"q. c #948A95",
"w. c #9C8EA2",
"e. c #9D92A3",
"r. c #9F98A5",
"t. c #A08FA7",
"y. c #A195A6",
"u. c #A29DA5",
"i. c #A497AA",
"p. c #A59BAB",
"a. c #A99EAE",
"s. c #A99BB0",
"d. c #A8A2AE",
"f. c #ABACAB",
"g. c #ACA3B1",
"h. c #B1A6B6",
"j. c #B2A9B6",
"k. c #B5ACBA",
"l. c #BAAFBC",
"z. c #B7B0BC",
"x. c #B9B2BE",
"c. c #BEB9BF",
"v. c #BDB4C1",
"b. c #BFB8C3",
"n. c #C1B7C4",
"m. c #C3BCC5",
"M. c #C5BEC9",
"N. c #C8BFCB",
"B. c #C6C3C9",
"V. c #C9C3CC",
"C. c #CFCACF",
"Z. c #CEC7D0",
"A. c #CEC9D2",
"S. c #D2CDD5",
"D. c #D4D2D6",
"F. c #D6D3D9",
"G. c #DAD6DB",
"H. c #DEDADE",
"J. c #DDDADE",
"K. c #DDDDE0",
"L. c #E1DDE2",
"P. c #E7E6E5",
"I. c #E4E2E5",
"U. c #E8E6E7",
"Y. c #E7E4E8",
"T. c #E9E6E9",
"R. c #EDEBED",
"E. c #E8E9E5",
"W. c #EFEFF0",
"Q. c #EFEDF0",
"!. c #F1EFF1",
"~. c #EFF2F2",
"^. c #EEFEFE",
"/. c #E4FDFD",
"(. c #F3F3F3",
"). c #F2F2F1",
"_. c #F4F5F5",
"`. c #F4F4F4",
/* pixels */
"                                                                                                                        ",
"                                                                                                                        ",
"                                                                                                                        ",
"                                                                                                                        ",
"                                                          S A S A                                                       ",
"                                                    5 M >.k.n.0._ > 1 7 4.                                              ",
"                                                j +.B.U.b.@.O.7.e.y.y.e.O.z                                             ",
"                                            ~ ) F.W.j.` 9.9.P > = * * ; v Q u |                                         ",
"                                          S 9.).P.,.7.#.0 * - i b L m i : * - = f                                       ",
"                                        | @.).P.` 0.L * * i <.5.7.9.9.9.9.W > * = S                                     ",
"                                        T I.R.;.0.P * * * 0 0 0 e p Y #.2.9.;.v - 2                                     ",
"                                      K S.`.e.0.b * * * * * * * * * * - 0 W 7.7.P = z                                   ",
"                                      0.).H.@.W * * * * * * * * * * * * * * i 2.8.p <                                   ",
"                                    D B.`.e.i.; * * * * * * * * * * * * * * * b 7.O.= a                                 ",
"                                    E U.(._ ;.* = 0 ; * * * * * * * * * * * * = O.7.w <                                 ",
"                                    ) V.x.5.e - @.9.-.: * * * * * * * * * * * * v 9.m *                                 ",
"                                  ~ v 2._ P % e 9.9.7.e * * * * * * * * * * * * 0 2.U *                                 ",
"                                  6 L 2.B.9.$ : 7.9.2.0 * * * * * * * * * * * * > ;.P *                                 ",
"                                s 5.H.k.P F.R O i ` v * * * * * * * * * * * * * - -.i *                                 ",
"                                H F.`.).j.1.c.+ & b = * * * * * * * * * * * * * - ! : *                                 ",
"                                ` I.`.`.).P L.@ r %.; * * * * * * * * * * * * * - q * ,                                 ",
"                                G V.).`.W.P n.@ X # @ * * * * * * * * * * * * * * * * a                                 ",
"                                d w.V.S.N.m g.@ . . . + * * * * * * * * * * * * * * , S                                 ",
"                                  V k.n.5.` W 0 o . . . . @ * * * * * * * * * * * * a                                   ",
"                                   .c L > O.0 9.= o . . . . o @ $ * * * * * * * $ ,                                     ",
"                                      l l m i.R :.: o . . . . . . o O O O O O + $ z                                     ",
"                                      A K v 7.w.Y ;.t + . . . . . . . . . X @ * 6                                       ",
"                                    z e.S.e.t @.y.o.@.` i $ O O O O O + 8 t w d                                         ",
"                                    C >.7.P 8.! L 9.o.! 1.;.Y i t i L O.@.M Z                                           ",
"                                  J n.` e.R.L.M.h.` N ! Y b N L Y U h i i X.                                            ",
"                                  M R S.(.`.`.R.S.M.n.y.1._ U Y ! :.a.n.9.z                                             ",
"                                Z C L.`.`.`.`.`.`.R.H.Z.N.m.m.m.N.C.J.R.>.1.                                            ",
"                                H m.(.`.`.`.`.`.`.`.).R.T.I.I.I.T.R.).).' B.z                                           ",
"                              z 1.D.`.`.`.`.`.`.`.`.`.).U.D.S.V.M.b.k.g.N I.C                                           ",
"                            ~ p.b.2.z.).`._.).(.`.`.`.n.-.L 8.p.g.j.8.g.7.` -.d                                         ",
"                            F W.`.T.;.V.T.A.w.B.`.`.`.5.m.@.).~.(.`.n.F.Y.9 D.5.~                                       ",
"                          X.d.`.`.`.H.@.j.` N O.-.*.@.U 2.O.1...3.P.M.D.W.U ` E.=.S                                     ",
"                          B R.`.`.`.R.8.; V.)._.).).).H.` O.l { [ n.u.T.).N / _.).b.T a                                 ",
"                        ^ >.`.`.`.`.F.U : ` e.h.k.g.9.! ` ! 8.E 6.z.m.L.D.N L.`.`.`.V.n M                               ",
"                        F z.`.`.`.).g.8 9.i @.Y P R ;.O.<.` v.N.N.p.y.l.g.%.`.`.(.).).p.9.s                             ",
"                        ( J.`.`.`.).;.o.n.L M.S.G.L.H.e.n b i L U R W ` i y.U.U.x.2.H.;.B.B                             ",
"                        +.R.`.`.`.`.x.` b.Y x.H.`.`.P.m.k.a.e.5.@.O.p.Z.v ` x.j.;.I 2.%.G.z                             ",
"                        &.(.`.`.`.).m.! j.9.2.B.R.`.`.`.`.`.`.`.L.1.N P z   V *.w.;.8.l.)                               ",
"                        ` ).`.`.`.T.,.N ;.t.n N.S.).`.`.`.`.`.T.9.9.Z.7.a     S x O.2.E Z                               ",
"                        J S.(.`.`.T.2.      4 2.M.S.R.`.`.`.`.;.d.(.`.).0.g                                             ",
"                        } M e.N.Z.b.o.      3 L *.b.B.H.R._.Z.8.R.`.`.`.).G                                             ",
"                            f d k 3       s ` y.e.P 7.b.N.S.-.I.`.`.`.`.`.k.f                                           ",
"                                        k 0.K.>.y.z.;.o.8.v.R Y.(.`.`.`.`.K.k   ^  .                                    ",
"                                      %.x.).`.T.g.>.x.v.2.U o.V.T.`.`.`.`.R.r =.e.` 6                                   ",
"                                      c.).`.`.`.`.K.p.@.` m p n.S.).`.`.`.x.i.B.` ' T k                                 ",
"                                      S.`.`.`.`.`.`.P.M.x.b A w.B.T.`.`.(.5.H.i q.f.u.N                                 ",
"                                    ( D.`.`.`.`.!.H.B.s.U |   G k.G.`.`.R.C.@._ R Q P w                                 ",
"                                    Z B.`.F.e.g.h.i.) Z       z 1.V.R.`.(.k./ f.f.f.=.s                                 ",
"                                      9.).`.R.x.r.1.D           F l.D.).Z.e R ' ] / j                                   ",
"                                      J H.`.`.`.`.~.$.          X.1.m.x.i @.2.>.W y                                     ",
"                                      ~ ` F.R.).R.P.=.            x P v h I P n c                                       ",
"                                        f G e.k.g.1.x               y M v w 4                                           ",
"                                            Z x z                                                   /.                  ",
"                                                                                                    ^.                  ",
"                                                                                                                        "
};
