/* XPM */
static char *_79075c274c14f87e81722ebb4cdfeaeNCk7nt0RVGE1RNmv[] = {
/* columns rows colors chars-per-pixel */
"60 60 177 2 ",
"   c None",
".  c #210E2C",
"X  c #24132F",
"o  c #250F31",
"O  c #261132",
"+  c #291335",
"@  c #2E163B",
"#  c #2D1B36",
"$  c #31193E",
"%  c #30153C",
"&  c #35233F",
"*  c #351943",
"=  c #391C45",
"-  c #3B1F48",
";  c #3B2247",
":  c #3D244B",
">  c #33294F",
",  c #3F294E",
"<  c #35254D",
"1  c #392C52",
"2  c #362B52",
"3  c #363456",
"4  c #373659",
"5  c #3A365A",
"6  c #37395D",
"7  c #3E3E61",
"8  c #353F64",
"9  c #40274C",
"0  c #432F4F",
"q  c #442C52",
"w  c #492D56",
"e  c #443155",
"r  c #4A3356",
"t  c #473A55",
"y  c #4E3759",
"u  c #43395E",
"i  c #4C3B5B",
"p  c #533C5D",
"a  c #553E60",
"s  c #3C4465",
"d  c #3C4A66",
"f  c #3D4E6D",
"g  c #3E5575",
"h  c #3E5D79",
"j  c #55405F",
"k  c #444464",
"l  c #434967",
"z  c #41456A",
"x  c #424C6B",
"c  c #4B496A",
"v  c #494262",
"b  c #564263",
"n  c #5A4565",
"m  c #5C4A66",
"M  c #5D4568",
"N  c #544C69",
"B  c #5E4C69",
"V  c #4B536E",
"C  c #54526F",
"Z  c #5C506C",
"A  c #445473",
"S  c #445B75",
"D  c #435D7A",
"F  c #4D5D7B",
"G  c #535571",
"H  c #5C5371",
"J  c #5C5973",
"K  c #5A5F78",
"L  c #565A76",
"P  c #624D6C",
"I  c #64526D",
"U  c #69576F",
"Y  c #665372",
"T  c #695573",
"R  c #645A73",
"E  c #6D5C75",
"W  c #635D7C",
"Q  c #6F5C79",
"!  c #715E77",
"~  c #715E7A",
"^  c #46617D",
"/  c #4A637E",
"(  c #6E6275",
")  c #62647B",
"_  c #6D637C",
"`  c #726377",
"'  c #74647D",
"]  c #786B7E",
"[  c #7D707F",
"{  c #3977AA",
"}  c #2777B1",
"|  c #486680",
" . c #446982",
".. c #4A6883",
"X. c #546182",
"o. c #4A728B",
"O. c #756580",
"+. c #796681",
"@. c #746B83",
"#. c #7C6D84",
"$. c #7F6E88",
"%. c #6F7185",
"&. c #7E7185",
"*. c #757188",
"=. c #7E738A",
"-. c #7D788A",
";. c #807287",
":. c #83748B",
">. c #88768F",
",. c #857B8E",
"<. c #897C8E",
"1. c #897791",
"2. c #857B92",
"3. c #8B7D92",
"4. c #78849F",
"5. c #5B91AA",
"6. c #8D8295",
"7. c #87819B",
"8. c #918297",
"9. c #93859B",
"0. c #958A9B",
"q. c #998C9E",
"w. c #948A95",
"e. c #9C8EA2",
"r. c #9D92A3",
"t. c #9F98A5",
"y. c #A08FA7",
"u. c #A195A6",
"i. c #A29DA5",
"p. c #A497AA",
"a. c #A59BAB",
"s. c #A99EAE",
"d. c #A99BB0",
"f. c #A8A2AE",
"g. c #ABACAB",
"h. c #ACA3B1",
"j. c #B1A6B6",
"k. c #B2A9B6",
"l. c #B5ACBA",
"z. c #BAAFBC",
"x. c #B7B0BC",
"c. c #B9B2BE",
"v. c #BEB9BF",
"b. c #BDB4C1",
"n. c #BFB8C3",
"m. c #C1B7C4",
"M. c #C3BCC5",
"N. c #C5BEC9",
"B. c #C8BFCB",
"V. c #C6C3C9",
"C. c #C9C3CC",
"Z. c #CFCACF",
"A. c #CEC7D0",
"S. c #CEC9D2",
"D. c #D2CDD5",
"F. c #D4D2D6",
"G. c #D6D3D9",
"H. c #DAD6DB",
"J. c #DEDADE",
"K. c #DDDADE",
"L. c #DDDDE0",
"P. c #E1DDE2",
"I. c #E7E6E5",
"U. c #E4E2E5",
"Y. c #E8E6E7",
"T. c #E7E4E8",
"R. c #E9E6E9",
"E. c #EDEBED",
"W. c #E8E9E5",
"Q. c #EFEFF0",
"!. c #EFEDF0",
"~. c #F1EFF1",
"^. c #EFF2F2",
"/. c #F3F3F3",
"(. c #F2F2F1",
"). c #F4F5F5",
"_. c #F4F4F4",
/* pixels */
"                                                                                                                        ",
"                                                                                                                        ",
"                                                                                                                        ",
"                                                                                                                        ",
"                                                      S S S S                                                           ",
"                                              5.8 2 , ` q.m.l.,.N 6                                                     ",
"                                            x @.r.u.u.r.8.@.#.n.Y.C.@.k                                                 ",
"                                         .i ! b ; * * = , I 0.0.' k.!.G._ ^                                             ",
"                                      g = ; * : p M P n p = * q $.8.<.I./.0.D                                           ",
"                                    D = * , Q 0.0.0.0.8.6.1.p * * P q.' I./.#. .                                        ",
"                                    3 = b >.0.3.$.T a r q q q * * * I q.:.E.U.R                                         ",
"                                  x = I 8.8.Q q = * * * * * * * * * * n q.r._.D.L                                       ",
"                                  1 a 8.3.p * * * * * * * * * * * * * * Q #.K./.q.                                      ",
"                                s = +.8.n * * * * * * * * * * * * * * * ; a.r.).V.F                                     ",
"                                1 e 8.+.= * * * * * * * * * * * * ; q = * >.` _.T.W                                     ",
"                                * n 0.b * * * * * * * * * * * * : ;.0.#.= r 6.x.C._                                     ",
"                                * Y 3.q * * * * * * * * * * * * r 8.0.0.r % I ` 3.b ^                                   ",
"                                * I >., * * * * * * * * * * * * q 3.0.8.: $ 0.C.3.P 7                                   ",
"                                * p ;.- * * * * * * * * * * * * * b ' p O E G.I l.K.6.d                                 ",
"                                * : ~ = * * * * * * * * * * * * * = n & + v.3.k./._.G.J                                 ",
"                                > * w = * * * * * * * * * * * * * ; &.t @ P.I /.).).U.'                                 ",
"                                s * * * * * * * * * * * * * * * * @ # X @ m.I !.)./.C.H                                 ",
"                                D < * * * * * * * * * * * * * * + . . . @ h.n N.D.C.e.f                                 ",
"                                  s * * * * * * * * * * * * @ . . . . o q Q ' 6.m.l.C                                   ",
"                                    < $ * * * * * * * $ @ o . . . . o = 0.q +., P v  .                                  ",
"                                    x $ + O O O O O O . . . . . . o : >.E p.n z z                                       ",
"                                      7 * @ X . . . . . . . . . + i :.T e.8.b L S                                       ",
"                                        f e i 9 + O O O O O $ p ' #.O.u.#.y r.D.r.c                                     ",
"                                          A N #.+.P p y p T :.3.! O.0.P ! 8.I 8.,.Z                                     ",
"                                            o.p p j Y T P B n T ! B ' j.N.P.E.r.' m.K                                   ",
"                                            x 0.m.s.>.~ T Y ` 3.u.m.N.D.E.).)._.D.E N                                   ",
"                                            2.,.E.K.Z.N.M.M.M.N.A.K.E.).).).).).).P.Z A                                 ",
"                                          x V.] /./.E.Y.U.U.U.Y.E./.).).).).).).)._.m.J                                 ",
"                                          Z U.B h.l.b.N.C.D.F.Y./.).).).).).).).)./.F.2.c                               ",
"                                        f ;.' 8.h.9.k.h.a.9.P ;.m._.).)._./.).)./.x.3.b.s.^                             ",
"                                      ^ 6.F.0 T.G.m._._.^./.#.m.6._.).).V.e.S.E.C.:.Y.).!.G                             ",
"                                    D -.W.' Y !.F.N.I.4.X.2.+.3.Y #.=.;.+.B ' k.#.K.).).).f.o.                          ",
"                                s R b./.).( B /.E.i.m.{ } z +.' J./././.)./.C.; 9.E.).).).E.V                           ",
"                              N m C.).)._.P.B F.P.m.x.7.W 9.! ' ! 0.h.l.j.r.' : Y G.).).).).,./                         ",
"                            d 0.s././._.)._.&.h.z.u.a.N.N.b.' 1.+.>.E I T #.p 0.9 h./.).).).x.G                         ",
"                            V C.:.K.3.x.Y.T.p.p ' Q T I P p n m r.K.P.H.D.N.P m.O.:./.).).).K.)                         ",
"                            x H.&.3.U :.k.c.' b S.a.+.#.6.r.s.l.m.I.).).K.x.T n.' x.).).).).E.@.                        ",
"                              _ z.9.>.e.;.C   x I B 3.P._.).).).).).).E.C.3.0.k.~ M./.).).)._.*.                        ",
"                              A W 3.@.x D     s 8.S.0.0.E.).).).).)./.D.N.m y.>.B <.E.).).)./.'                         ",
"                                            h q./.)._.f.:._.).).).E.D.N.3.4       3.Y.).)._.D.K                         ",
"                                            H /._.).).E.9.S.).E.K.C.n.=.P 4       O.b.S.B.r.N |                         ",
"                                          g l.).).).)._.U.;.D.N.n.8.I r.u.' d       4 l f g                             ",
"                                    ../   l L.).).).)._.T.E b.8.O.>.x.u.,.L.q.l                                         ",
"                                  7 ' r.-.t E.).).).).Y.C.O.Y 3.b.c.,.h.E._./.x.&.                                      ",
"                                l R ] ' N.a.x._.).)./.D.m.a M ' #.s.L.).).).)./.v.                                      ",
"                                B i.g.w.p K.6._.).).E.C.e.S n x.N.I._.).).).)._.D.                                      ",
"                                e I ! E ` #.Z.E.).).H.l.H    .Y d.C.K.~.).)._.).F.)                                     ",
"                                d -.g.g.g.( l._.).E.C.2.x       A _ p.j.h.r.G._.C.A                                     ",
"                                  k ( [ ] E r S./.F.z.G           F 3.t.c.E.)./.0.                                      ",
"                                    u Q ,.3.#.p x.M.2.o.          %.^.).).).).K.K                                       ",
"                                      v m I U j b I c             -.I.E./.E.G.' ^                                       ",
"                                          4 e b N u               c 2.h.l.r.H g                                         ",
"                                                                      x c A                                             ",
"                                                                                                                        ",
"                                                                                                                        "
};
